<svg width="401" height="326" viewBox="0 0 401 326" fill="none" xmlns="http://www.w3.org/2000/svg">
<path d="M314.219 242.509C266.291 242.509 227.438 202.477 227.438 153.096C227.438 103.715 266.291 63.6841 314.219 63.6841C362.147 63.6841 401 103.715 401 153.096C401 202.477 362.147 242.509 314.219 242.509Z" fill="#263238"/>
<mask id="mask0_90_562" style="mask-type:luminance" maskUnits="userSpaceOnUse" x="0" y="0" width="398" height="326">
<path d="M0.00623353 0H299.127V92.1133C317.661 94.5805 335.317 101.776 350.518 113.057C365.719 124.338 377.99 139.352 386.237 156.759C394.483 174.166 398.447 193.422 397.774 212.807C397.102 232.193 391.813 251.103 382.382 267.849C372.95 284.594 359.669 298.653 343.726 308.769C327.783 318.885 309.674 324.743 291.017 325.819C272.361 326.895 253.738 323.157 236.813 314.937C219.888 306.717 205.189 294.272 194.028 278.715H0.00623353V0Z" fill="white"/>
</mask>
<g mask="url(#mask0_90_562)">
<path d="M408.031 323.438C408.031 323.438 376.717 210.243 370.805 186.047C364.892 161.85 355.949 146.105 337.499 142.265C319.05 138.425 284.987 134.862 284.987 134.862C284.987 134.862 255.381 131.778 233.93 133.32C212.479 134.862 192.856 146.768 182.502 154.91C172.148 163.053 142.17 191.012 142.17 191.012L145.869 126.488L118.863 128.786C118.863 128.786 99.2542 218.663 96.6695 235.195C94.0847 251.727 94.0698 259.022 96.6695 260.934C99.2691 262.846 94.8126 264.018 118.492 255.937C142.17 247.856 169.92 236.737 185.087 232.126C200.254 227.515 202.111 226.744 202.111 226.744C202.111 226.744 239.248 284.76 251.058 302.048C259.164 314.323 266.374 327.21 272.628 340.602" fill="white"/>
<mask id="mask1_90_562" style="mask-type:luminance" maskUnits="userSpaceOnUse" x="94" y="126" width="315" height="215">
<path d="M408.035 323.438C408.035 323.438 376.721 210.243 370.808 186.046C364.896 161.85 355.953 146.104 337.503 142.264C319.053 138.425 284.991 134.862 284.991 134.862C284.991 134.862 255.385 131.778 233.934 133.32C212.483 134.862 192.86 146.768 182.506 154.91C172.152 163.053 142.174 191.012 142.174 191.012L145.873 126.488L118.867 128.786C118.867 128.786 99.2582 218.663 96.6734 235.195C94.0886 251.727 94.0737 259.022 96.6734 260.934C99.273 262.846 94.8165 264.018 118.495 255.937C142.174 247.856 169.924 236.737 185.091 232.126C200.258 227.515 202.115 226.744 202.115 226.744C202.115 226.744 239.252 284.76 251.062 302.048C259.168 314.323 266.378 327.21 272.631 340.602" fill="white"/>
</mask>
<g mask="url(#mask1_90_562)">
<path opacity="0.2" d="M96.7111 260.81C94.1114 258.898 94.1114 251.557 96.7111 235.072C98.1966 225.217 105.847 189.269 111.73 161.85C109.397 194.235 108.491 225.88 113.215 231.787C123.614 244.556 138.81 227.777 138.81 227.777L141.707 202.887C141.707 202.887 193.492 163.238 212.922 156.514C232.353 149.79 253.031 148.448 273.13 155.172C293.229 161.896 310.03 168.62 322.33 181.389C334.63 194.158 377.293 296.311 377.293 296.311L382.121 326.645L272.669 340.401C266.416 327.009 259.206 314.122 251.1 301.847C239.216 284.56 202.152 226.544 202.152 226.544C202.152 226.544 200.295 227.315 185.128 231.926C169.961 236.537 142.212 247.671 118.533 255.737C94.8542 263.802 99.2959 262.738 96.7111 260.81Z" fill="black"/>
</g>
<path d="M408.031 323.438C408.031 323.438 376.717 210.243 370.805 186.047C364.892 161.85 355.949 146.105 337.499 142.265C319.05 138.425 284.987 134.862 284.987 134.862C284.987 134.862 255.381 131.778 233.93 133.32C212.479 134.862 192.856 146.768 182.502 154.91C172.148 163.053 142.17 191.012 142.17 191.012L145.869 126.488L118.863 128.786C118.863 128.786 99.2542 218.663 96.6695 235.195C94.0847 251.727 94.0698 259.022 96.6695 260.934C99.2691 262.846 94.8126 264.018 118.492 255.937C142.17 247.856 169.92 236.737 185.087 232.126C200.254 227.515 202.111 226.744 202.111 226.744C202.111 226.744 239.248 284.76 251.058 302.048C259.164 314.323 266.374 327.21 272.628 340.602" stroke="#263238" stroke-linecap="round" stroke-linejoin="round"/>
<path d="M191.59 208.809L202.152 226.636L170.897 208.809" stroke="#263238" stroke-linecap="round" stroke-linejoin="round"/>
<path d="M142.215 190.904C142.215 190.904 140.729 222.781 138.887 227.777C137.045 232.774 128.89 235.072 128.89 235.072" fill="white"/>
<path d="M142.215 190.904C142.215 190.904 140.729 222.781 138.887 227.777C137.045 232.774 128.89 235.072 128.89 235.072" stroke="#263238" stroke-linecap="round" stroke-linejoin="round"/>
<path d="M305.25 189.933C305.25 189.933 309.291 199.88 307.27 199.88C305.25 199.88 292.133 194.652 286.072 194.652C280.011 194.652 273.46 205.647 273.46 205.647C273.46 205.647 255.798 192.03 250.242 193.603C247.521 194.549 245.025 196.084 242.918 198.106C242.567 198.424 242.137 198.632 241.677 198.706C241.216 198.781 240.745 198.718 240.318 198.526C239.891 198.334 239.524 198.021 239.262 197.621C238.999 197.222 238.85 196.754 238.833 196.271C238.729 193.449 238.64 189.593 238.64 184.689C238.64 173.169 248.221 141.74 265.884 140.167C283.547 138.594 286.577 151.687 294.109 167.402C301.64 183.116 305.25 189.933 305.25 189.933Z" fill="#263238"/>
<path d="M267.267 122.155C267.267 122.155 284.29 124.499 292.06 132.209C299.829 139.92 297.244 152.18 301.314 163.315C305.385 174.449 312.411 197.119 308.742 196.733C305.073 196.348 292.089 185.599 288.39 188.282C284.692 190.966 276.18 202.162 274.694 202.871C273.209 203.581 254.343 189.439 251.758 187.897C249.173 186.355 236.591 203.318 236.22 198.692C235.848 194.066 235.105 166.816 237.705 150.299C240.305 133.782 258.755 122.54 267.267 122.155Z" fill="white" stroke="#263238" stroke-linecap="round" stroke-linejoin="round"/>
<path d="M261.348 100.641C261.348 100.641 267.632 120.612 272.846 127.583C278.06 134.554 280.273 135.649 282.086 151.78C283.898 167.911 275.802 204.398 273.173 203.627C270.543 202.856 245.052 160.616 236.54 153.692C228.028 146.768 219.145 139.489 219.145 139.489C219.145 139.489 239.868 132.95 246.894 123.743C252.204 116.386 257.033 108.669 261.348 100.641Z" fill="white"/>
<mask id="mask2_90_562" style="mask-type:luminance" maskUnits="userSpaceOnUse" x="219" y="100" width="64" height="104">
<path d="M261.348 100.641C261.348 100.641 267.632 120.612 272.846 127.583C278.06 134.554 280.273 135.649 282.086 151.78C283.898 167.911 275.802 204.398 273.173 203.627C270.543 202.856 245.052 160.616 236.54 153.692C228.028 146.768 219.145 139.489 219.145 139.489C219.145 139.489 239.868 132.95 246.894 123.743C252.204 116.386 257.033 108.669 261.348 100.641Z" fill="white"/>
</mask>
<g mask="url(#mask2_90_562)">
<path opacity="0.2" d="M232.87 150.716C225.666 144.84 219.159 139.504 219.159 139.504C219.159 139.504 239.882 132.965 246.908 123.759C252.211 116.416 257.035 108.714 261.347 100.703C263.502 107.464 266.017 114.095 268.879 120.566C265.744 129.68 257.01 144.547 232.87 150.716Z" fill="black"/>
<path d="M246.908 123.697C252.211 116.355 257.035 108.652 261.347 100.641C261.347 100.641 263.456 107.35 266.234 114.336C263.932 121.26 259.312 131.562 251.038 137.638C244.347 142.272 236.926 145.654 229.112 147.631L219.159 139.489C219.159 139.489 239.882 132.903 246.908 123.697Z" fill="#263238"/>
</g>
<path d="M261.348 100.641C261.348 100.641 267.632 120.612 272.846 127.583C278.06 134.554 280.273 135.649 282.086 151.78C283.898 167.911 275.802 204.398 273.173 203.627C270.543 202.856 245.052 160.616 236.54 153.692C228.028 146.768 219.145 139.489 219.145 139.489C219.145 139.489 239.868 132.95 246.894 123.743C252.204 116.386 257.033 108.669 261.348 100.641Z" stroke="#263238" stroke-linecap="round" stroke-linejoin="round"/>
<path d="M182.544 49.5652C182.544 49.5652 183.643 75.3039 182.916 83.7395C182.188 92.1751 179.217 106.872 185.887 120.613C192.557 134.353 198.097 143.282 204.381 145.58C210.665 147.878 231.016 143.282 247.297 130.606C263.578 117.929 266.535 91.8204 269.134 83.3693C271.734 74.9183 268.763 46.1107 252.11 36.8886C238.628 29.6838 222.984 28.1697 208.451 32.6631C199.553 35.732 182.544 49.5652 182.544 49.5652Z" fill="white"/>
<mask id="mask3_90_562" style="mask-type:luminance" maskUnits="userSpaceOnUse" x="181" y="30" width="89" height="117">
<path d="M182.544 49.5653C182.544 49.5653 183.643 75.304 182.916 83.7396C182.188 92.1752 179.217 106.872 185.887 120.613C192.557 134.353 198.097 143.282 204.381 145.58C210.665 147.878 231.016 143.282 247.297 130.606C263.578 117.929 266.535 91.8205 269.134 83.3695C271.734 74.9184 268.763 46.1109 252.11 36.8887C238.628 29.6839 222.984 28.1699 208.451 32.6632C199.553 35.7321 182.544 49.5653 182.544 49.5653Z" fill="white"/>
</mask>
<g mask="url(#mask3_90_562)">
<path opacity="0.2" d="M252.053 36.8888C254.428 38.2239 256.579 39.9475 258.426 41.9934L249.854 48.3163C249.854 48.3163 238.847 36.8888 214.202 53.0198C201.486 61.3475 190.523 62.6892 182.873 62.0261C182.695 55.1789 182.457 49.5654 182.457 49.5654C182.457 49.5654 199.466 35.686 208.349 32.6016C222.904 28.1148 238.566 29.6512 252.053 36.8888Z" fill="black"/>
</g>
<path d="M182.544 49.5652C182.544 49.5652 183.643 75.3039 182.916 83.7395C182.188 92.1751 179.217 106.872 185.887 120.613C192.557 134.353 198.097 143.282 204.381 145.58C210.665 147.878 231.016 143.282 247.297 130.606C263.578 117.929 266.535 91.8204 269.134 83.3693C271.734 74.9183 268.763 46.1107 252.11 36.8886C238.628 29.6838 222.984 28.1697 208.451 32.6631C199.553 35.732 182.544 49.5652 182.544 49.5652Z" stroke="#263238" stroke-linecap="round" stroke-linejoin="round"/>
<path d="M217.483 84.2792C217.483 87.0089 218.508 89.2296 219.771 89.2296C221.034 89.2296 222.059 87.0089 222.059 84.2792C222.059 81.5496 221.034 79.3135 219.771 79.3135C218.508 79.3135 217.483 81.5342 217.483 84.2792Z" fill="#263238"/>
<path d="M190.468 86.8545C190.468 89.5995 191.493 91.8203 192.755 91.8203C194.018 91.8203 195.043 89.5995 195.043 86.8545C195.043 84.1095 194.018 81.9042 192.755 81.9042C191.493 81.9042 190.468 84.1249 190.468 86.8545Z" fill="#263238"/>
<path d="M197.712 79.5293C197.712 79.5293 204.739 86.8237 202.897 89.8926C201.055 92.9615 196.747 94.6887 198.084 99.1456C199.421 103.602 209.18 105.314 212.508 99.1456" stroke="#263238" stroke-linecap="round" stroke-linejoin="round"/>
<path d="M233.607 103.34C230.848 106.816 227.407 109.641 223.513 111.627C219.62 113.614 215.363 114.716 211.027 114.86C211.027 114.86 226.209 125.223 232.864 124.113C239.519 123.003 233.607 103.34 233.607 103.34Z" fill="#263238" stroke="#263238" stroke-linecap="round" stroke-linejoin="round"/>
<path d="M230.055 69.6287C230.055 69.6287 223.608 60.3757 210.743 66.128" stroke="#263238" stroke-linecap="round" stroke-linejoin="round"/>
<path d="M195.129 69.9215C195.129 69.9215 186.988 67.9784 184.032 76.0902" stroke="#263238" stroke-linecap="round" stroke-linejoin="round"/>
<path d="M266.522 93.7326C266.522 93.7326 263.194 78.7582 255.053 73.3761C246.913 67.9939 239.144 69.1506 243.957 61.8561C248.77 54.5617 251.384 47.2519 240.986 43.7974C230.587 40.343 210.28 46.1107 198.441 50.7217C186.601 55.3328 163.665 56.8904 157.738 39.5719C154.084 28.9001 164.779 20.4028 172.593 16.0385C181.254 11.227 190.969 8.83662 200.743 10.6255C206.685 11.6896 212.345 14.1108 218.287 14.7277C228.344 15.7918 237.213 10.9494 247.24 13.4631C255.656 15.5489 263.19 20.4206 268.705 27.3426C277.99 39.1864 280.589 60.6995 266.522 93.7326Z" fill="#263238"/>
<mask id="mask4_90_562" style="mask-type:luminance" maskUnits="userSpaceOnUse" x="157" y="10" width="120" height="84">
<path d="M266.525 93.7325C266.525 93.7325 263.198 78.7581 255.057 73.376C246.917 67.9938 239.148 69.1504 243.961 61.856C248.774 54.5616 251.388 47.2517 240.99 43.7973C230.591 40.3429 210.284 46.1105 198.445 50.7216C186.605 55.3327 163.669 56.8902 157.742 39.5718C154.088 28.9 164.783 20.4027 172.597 16.0384C181.257 11.2268 190.973 8.8365 200.747 10.6254C206.689 11.6895 212.349 14.1107 218.291 14.7276C228.348 15.7917 237.216 10.9493 247.244 13.463C255.66 15.5488 263.194 20.4204 268.709 27.3424C277.994 39.1862 280.593 60.6994 266.525 93.7325Z" fill="white"/>
</mask>
<g mask="url(#mask4_90_562)">
<path d="M180.856 9.90063C180.856 9.90063 161.634 20.6958 175.092 38.6311C188.551 56.5665 201.222 44.2291 233.146 37.8446C265.069 31.46 283.891 47.8224 283.891 47.8224" stroke="#808080" stroke-linecap="round" stroke-linejoin="round"/>
<path d="M281.207 67.4386C281.207 67.4386 275.057 55.1013 255.062 51.4773C235.067 47.8532 233.909 51.0763 233.909 51.0763" stroke="#808080" stroke-linecap="round" stroke-linejoin="round"/>
</g>
<path d="M266.522 93.7326C266.522 93.7326 263.194 78.7582 255.053 73.3761C246.913 67.9939 239.144 69.1506 243.957 61.8561C248.77 54.5617 251.384 47.2519 240.986 43.7974C230.587 40.343 210.28 46.1107 198.441 50.7217C186.601 55.3328 163.665 56.8904 157.738 39.5719C154.084 28.9001 164.779 20.4028 172.593 16.0385C181.254 11.227 190.969 8.83662 200.743 10.6255C206.685 11.6896 212.345 14.1108 218.287 14.7277C228.344 15.7918 237.213 10.9494 247.24 13.4631C255.656 15.5489 263.19 20.4206 268.705 27.3426C277.99 39.1864 280.589 60.6995 266.522 93.7326Z" stroke="#263238" stroke-linecap="round" stroke-linejoin="round"/>
<path d="M258.159 88.2734C258.159 88.2734 267.756 65.4649 276.208 77.3395C284.661 89.2141 269.345 104.235 257.847 101.32" fill="white"/>
<path d="M258.159 88.2734C258.159 88.2734 267.756 65.4649 276.208 77.3395C284.661 89.2141 269.345 104.235 257.847 101.32" stroke="#263238" stroke-linecap="round" stroke-linejoin="round"/>
<path d="M153.683 85.6672C153.683 85.6672 159.967 84.8961 161.111 90.2936C162.254 95.6912 163.339 104.173 161.111 104.173C158.882 104.173 154.827 103.032 153.341 99.5466C151.856 96.0613 150.37 85.3279 150.37 85.3279L153.683 85.6672Z" fill="white" stroke="#263238" stroke-linecap="round" stroke-linejoin="round"/>
<path d="M143.704 83.7395C143.704 83.7395 152.617 82.1973 153.687 85.6672C154.757 89.137 156.272 101.089 155.173 101.413C154.073 101.736 147.403 98.7293 147.403 98.7293L143.704 83.7395Z" fill="white" stroke="#263238" stroke-linecap="round" stroke-linejoin="round"/>
<path d="M131.864 84.5104C131.864 84.5104 142.262 77.6015 144.803 81.056C147.343 84.5104 147.402 98.7291 147.402 98.7291C146.483 98.9401 145.527 98.9096 144.622 98.6403C143.717 98.371 142.89 97.8715 142.218 97.187C140.361 94.8892 138.148 91.8203 138.148 91.8203C138.148 91.8203 130.72 93.7325 129.636 93.3624C128.551 92.9923 125.937 93.3624 126.665 89.5225C127.393 85.6825 131.864 84.5104 131.864 84.5104Z" fill="white" stroke="#263238" stroke-linecap="round" stroke-linejoin="round"/>
<path d="M117.792 91.4348C122.461 88.0847 126.271 83.6005 128.889 78.3727C132.588 70.3072 134.445 70.6619 136.316 74.1472C138.188 77.6325 135.96 81.0561 134.474 84.125C132.989 87.1939 126.705 94.5037 126.705 94.5037L117.792 91.4348Z" fill="white" stroke="#263238" stroke-linecap="round" stroke-linejoin="round"/>
<path d="M184.343 145.164C184.343 145.164 189.705 192.709 188.873 195.284C188.041 197.859 178.98 200.851 176.915 199.139C174.85 197.428 176.083 194.004 176.915 191.86C177.747 189.717 169.903 149.883 169.903 149.883L184.343 145.164Z" fill="#FFCA40" stroke="#263238" stroke-linecap="round" stroke-linejoin="round"/>
<path d="M319.452 161.634L292.297 249.676C292.297 249.676 229.906 211.955 215.289 192.277C200.671 172.599 192.234 150.407 187.064 148.325C181.894 146.243 163.652 151.409 160.978 154.494C158.305 157.578 158.928 160.955 162.167 164.132C165.405 167.309 167.247 167.756 167.247 167.756C167.247 167.756 167.411 174.681 168.867 175.884C170.322 177.086 169.981 175.529 170.352 177.071C170.605 178.72 171.187 180.296 172.06 181.697C173.13 183.24 173.546 184.042 174.571 184.458C176.699 185.399 178.914 186.112 181.181 186.586C185.174 187.655 189.235 188.428 193.333 188.899C195.903 189.362 212.644 223.706 228.361 244.17C244.078 264.635 293.723 311.563 301.522 311.81C309.321 312.056 355.134 233.499 364.953 214.206" fill="white"/>
<mask id="mask5_90_562" style="mask-type:luminance" maskUnits="userSpaceOnUse" x="159" y="147" width="206" height="165">
<path d="M319.452 161.634L292.297 249.676C292.297 249.676 229.906 211.954 215.289 192.276C200.671 172.599 192.234 150.407 187.064 148.325C181.894 146.243 163.652 151.409 160.978 154.494C158.305 157.578 158.928 160.955 162.167 164.132C165.405 167.309 167.247 167.756 167.247 167.756C167.247 167.756 167.411 174.68 168.867 175.883C170.322 177.086 169.981 175.529 170.352 177.071C170.605 178.72 171.187 180.295 172.06 181.697C173.13 183.239 173.546 184.041 174.571 184.458C176.699 185.398 178.914 186.111 181.181 186.586C185.174 187.655 189.235 188.428 193.333 188.899C195.903 189.362 212.644 223.706 228.361 244.17C244.078 264.635 293.723 311.563 301.522 311.809C309.321 312.056 355.134 233.498 364.953 214.206" fill="white"/>
</mask>
<g mask="url(#mask5_90_562)">
<path opacity="0.2" d="M172.059 181.667C171.185 180.265 170.603 178.689 170.35 177.04C170.023 175.498 170.35 177.04 168.865 175.853C167.379 174.665 167.245 167.725 167.245 167.725C167.245 167.725 165.403 167.278 162.165 164.101C158.927 160.924 158.288 157.455 160.977 154.463C163.665 151.471 181.937 146.289 187.062 148.294C188.399 148.834 190.033 150.762 191.816 153.661C189.097 158.287 185.874 161.11 188.845 169.19C193.301 181.528 203.7 196.949 212.613 210.058C221.526 223.166 295.801 295.648 304.714 294.106C311.993 292.841 333.132 266.347 340.648 256.739C324.546 283.557 306.125 311.887 301.446 311.748C293.677 311.501 243.972 264.589 228.285 244.109C212.598 223.629 195.901 189.269 193.331 188.868C189.233 188.397 185.172 187.624 181.18 186.555C178.912 186.081 176.697 185.368 174.569 184.427C173.47 184.011 173.128 183.24 172.059 181.667Z" fill="black"/>
</g>
<path d="M319.452 161.634L292.297 249.676C292.297 249.676 229.906 211.955 215.289 192.277C200.671 172.599 192.234 150.407 187.064 148.325C181.894 146.243 163.652 151.409 160.978 154.494C158.305 157.578 158.928 160.955 162.167 164.132C165.405 167.309 167.247 167.756 167.247 167.756C167.247 167.756 167.411 174.681 168.867 175.884C170.322 177.086 169.981 175.529 170.352 177.071C170.605 178.72 171.187 180.296 172.06 181.697C173.13 183.24 173.546 184.042 174.571 184.458C176.699 185.399 178.914 186.112 181.181 186.586C185.174 187.655 189.235 188.428 193.333 188.899C195.903 189.362 212.644 223.706 228.361 244.17C244.078 264.635 293.723 311.563 301.522 311.81C309.321 312.056 355.134 233.499 364.953 214.206" stroke="#263238" stroke-linecap="round" stroke-linejoin="round"/>
<path d="M292.295 249.676C292.295 249.676 299.41 249.984 305.441 269.724" stroke="#263238" stroke-linecap="round" stroke-linejoin="round"/>
<path d="M181.183 186.555C178.916 186.081 176.701 185.368 174.573 184.427C173.474 184.011 173.087 183.24 172.062 181.667C171.189 180.265 170.607 178.689 170.354 177.04C170.027 175.498 169.062 174.974 167.621 173.771C166.18 172.568 167.294 167.726 167.294 167.726C167.294 167.726 165.452 167.278 162.213 164.102C158.975 160.925 158.336 157.455 161.025 154.463C163.714 151.471 181.985 146.29 187.11 148.294C192.235 150.299 199.99 170.764 213.434 189.779L200.926 200.419C197.004 193.634 194.211 189.038 193.29 188.869C189.207 188.395 185.161 187.622 181.183 186.555Z" fill="white"/>
<mask id="mask6_90_562" style="mask-type:luminance" maskUnits="userSpaceOnUse" x="159" y="147" width="55" height="54">
<path d="M181.175 186.555C178.908 186.081 176.693 185.368 174.565 184.427C173.466 184.011 173.079 183.24 172.054 181.667C171.181 180.265 170.599 178.689 170.346 177.04C170.019 175.498 169.054 174.974 167.613 173.771C166.172 172.568 167.286 167.725 167.286 167.725C167.286 167.725 165.444 167.278 162.206 164.101C158.967 160.924 158.328 157.455 161.017 154.463C163.706 151.471 181.978 146.289 187.103 148.294C192.228 150.299 199.982 170.763 213.426 189.778L200.918 200.419C196.996 193.634 194.203 189.038 193.282 188.868C189.199 188.395 185.153 187.622 181.175 186.555Z" fill="white"/>
</mask>
<g mask="url(#mask6_90_562)">
<path opacity="0.2" d="M172.059 181.667C171.185 180.265 170.603 178.689 170.35 177.04C170.023 175.498 170.35 177.04 168.865 175.853C167.379 174.665 167.245 167.725 167.245 167.725C167.245 167.725 165.403 167.278 162.165 164.101C158.927 160.924 158.288 157.455 160.977 154.463C163.665 151.471 181.937 146.289 187.062 148.294C188.399 148.834 190.033 150.762 191.816 153.661C189.097 158.287 185.874 161.11 188.845 169.19C193.301 181.528 203.7 196.949 212.613 210.058C221.526 223.166 295.801 295.648 304.714 294.106C311.993 292.841 333.132 266.347 340.648 256.739C324.546 283.557 306.125 311.887 301.446 311.748C293.677 311.501 243.972 264.589 228.285 244.109C212.598 223.629 195.901 189.269 193.331 188.868C189.233 188.397 185.172 187.624 181.18 186.555C178.912 186.081 176.697 185.368 174.569 184.427C173.47 184.011 173.128 183.24 172.059 181.667Z" fill="black"/>
</g>
<path d="M181.183 186.555C178.916 186.081 176.701 185.368 174.573 184.427C173.474 184.011 173.087 183.24 172.062 181.667C171.189 180.265 170.607 178.689 170.354 177.04C170.027 175.498 169.062 174.974 167.621 173.771C166.18 172.568 167.294 167.726 167.294 167.726C167.294 167.726 165.452 167.278 162.213 164.102C158.975 160.925 158.336 157.455 161.025 154.463C163.714 151.471 181.985 146.29 187.11 148.294C192.235 150.299 199.99 170.764 213.434 189.779L200.926 200.419C197.004 193.634 194.211 189.038 193.29 188.869C189.207 188.395 185.161 187.622 181.183 186.555Z" stroke="#263238" stroke-linecap="round" stroke-linejoin="round"/>
<path d="M197.342 114.089C201.427 114.089 204.77 120.258 204.77 127.722C204.77 135.186 201.457 141.354 197.342 141.354L106.726 169.776V84.5104L197.342 114.089Z" fill="#FFCA40" stroke="#263238" stroke-linecap="round" stroke-linejoin="round"/>
<path d="M146.36 102.739L181.715 113.303" stroke="#263238" stroke-linecap="round" stroke-linejoin="round"/>
<path d="M134.536 99.2073L141.934 101.428" stroke="#263238" stroke-linecap="round" stroke-linejoin="round"/>
<path d="M185.74 110.295L197.342 114.089C201.427 114.089 204.77 120.258 204.77 127.722C204.77 135.186 201.457 141.354 197.342 141.354L186.869 144.639C189.331 139.236 190.513 133.299 190.316 127.325C190.12 121.351 188.551 115.512 185.74 110.295Z" fill="#263238" stroke="#263238" stroke-linecap="round" stroke-linejoin="round"/>
<path d="M98.9272 184.982C81.764 184.982 67.8504 159.346 67.8504 127.722C67.8504 96.0978 81.764 70.4614 98.9272 70.4614C116.09 70.4614 130.004 96.0978 130.004 127.722C130.004 159.346 116.09 184.982 98.9272 184.982Z" fill="#D6D6D6" stroke="#263238" stroke-linecap="round" stroke-linejoin="round"/>
<path d="M98.9224 115.014L128.529 106.795L131.113 128.693L127.786 150.962L98.9224 140.429L97.8083 115.631" fill="#D6D6D6"/>
<path d="M98.9224 115.014L128.529 106.795L131.113 128.693L127.786 150.962L98.9224 140.429L97.8083 115.631" stroke="#263238" stroke-linecap="round" stroke-linejoin="round"/>
<path d="M98.9274 65.3104C117.63 65.3104 132.797 93.2544 132.797 127.722C132.797 162.189 117.63 190.133 98.9274 190.133C80.2249 190.133 65.0579 162.189 65.0579 127.722C65.0579 93.2544 80.2249 65.3104 98.9274 65.3104ZM98.0955 181.281C113.678 181.281 126.32 157.3 126.32 127.722C126.32 98.143 113.678 74.1779 98.0955 74.1779C82.5125 74.1779 69.8709 98.143 69.8709 127.722C69.8709 157.3 82.4977 181.281 98.0955 181.281Z" fill="#263238" stroke="#263238" stroke-linecap="round" stroke-linejoin="round"/>
<path d="M98.9237 140.429C95.1169 140.429 92.0309 134.74 92.0309 127.722C92.0309 120.704 95.1169 115.015 98.9237 115.015C102.73 115.015 105.816 120.704 105.816 127.722C105.816 134.74 102.73 140.429 98.9237 140.429Z" fill="#FFCA40" stroke="#263238" stroke-linecap="round" stroke-linejoin="round"/>
<path d="M11.582 62.9818L4.70414 60.7611" stroke="#263238" stroke-linecap="round" stroke-linejoin="round"/>
<path d="M60.8281 78.8044L20.0659 65.696" stroke="#263238" stroke-linecap="round" stroke-linejoin="round"/>
<path d="M55.4805 124.576L18.0754 125.964" stroke="#263238" stroke-linecap="round" stroke-linejoin="round"/>
<path d="M24.4844 181.62L16.73 184.211" stroke="#263238" stroke-linecap="round" stroke-linejoin="round"/>
<path d="M58.1484 170.347L30.6369 179.569" stroke="#263238" stroke-linecap="round" stroke-linejoin="round"/>
<path d="M56.8164 99.6083L36.7769 96.8324" stroke="#263238" stroke-linecap="round" stroke-linejoin="round"/>
<path d="M66.1719 185.599L51.4654 198.091" stroke="#263238" stroke-linecap="round" stroke-linejoin="round"/>
</g>
</svg>
