<svg width="121" height="60" viewBox="0 0 121 60" fill="none" xmlns="http://www.w3.org/2000/svg">
<path d="M113.542 59.2207H5.89844C5.89844 59.2207 9.95631 50.951 29.7203 50.538C73.5793 49.6216 113.542 59.2207 113.542 59.2207Z" fill="#FFCA40"/>
<path d="M86.8248 15.6712C83.0972 14.003 76.5836 13.5562 76.5836 13.5562C76.5836 13.5562 77.0289 15.1146 77.4742 20.9031C77.9195 26.6916 73.1328 50.0682 73.1328 50.0682C73.1328 50.0682 84.8366 51.3982 92.2794 52.6285C100.371 53.9661 112.873 56.7472 112.873 56.7472C112.873 56.7472 111.601 43.8962 113.541 36.0422C115.235 29.1859 120.999 19.5673 120.999 19.5673C120.999 19.5673 115.112 19.3621 111.426 20.0126C105.774 21.0102 97.7339 25.3558 97.7339 25.3558C97.7339 25.3558 92.0247 17.9982 86.8248 15.6712Z" fill="#C8161D"/>
<path d="M99.7371 2.53572C95.2844 5.09602 93.2807 9.43739 90.4977 16.673L87.3809 14.7806C87.3809 14.7806 90.2404 8.31616 93.2807 5.09602C95.1684 3.0966 96.1247 1.50728 98.7352 0.643326C100.555 0.0409557 101.807 -0.273597 103.633 0.309375C105.373 0.864716 106.132 1.80497 107.307 3.20362C108.594 4.73722 108.91 5.90453 109.644 7.76763C111.258 11.8636 111.425 18.8994 111.425 18.8994L108.197 19.4559C108.197 19.4559 108.148 12.377 106.861 8.10158C106.394 6.54732 106.369 5.51787 105.414 4.20548C104.69 3.21003 104.246 2.47402 103.077 2.09045C101.826 1.68053 99.7371 2.53572 99.7371 2.53572Z" fill="#C8161D"/>
<path d="M12.5984 24.4175H17.5738L23.6036 47.4824H18.1999L17.1125 43.0012H7.82063L5.51414 47.4824H0.110352L12.5984 24.4175ZM16.0581 38.52L14.147 30.8427L10.193 38.52H16.0581ZM26.6739 21.2213H31.2539L30.3313 27.6136H34.5819C35.5264 27.6136 36.4051 27.7454 37.2179 28.009C38.0306 28.2726 38.7336 28.701 39.3267 29.2941C39.9417 29.8652 40.414 30.6231 40.7435 31.5676C41.095 32.4902 41.2707 33.6215 41.2707 34.9615C41.2707 35.7523 41.2048 36.609 41.073 37.5315C40.8094 39.3767 40.3811 40.9364 39.788 42.2104C39.1949 43.4625 38.481 44.484 37.6462 45.2748C36.8335 46.0656 35.9218 46.6367 34.9114 46.9882C33.9229 47.3177 32.8904 47.4824 31.8141 47.4824H22.9835L26.6739 21.2213ZM31.9129 43.1989C32.4401 43.1989 32.9344 43.1111 33.3957 42.9353C33.8789 42.7596 34.3183 42.4631 34.7137 42.0457C35.131 41.6064 35.4825 41.0242 35.7681 40.2993C36.0756 39.5525 36.3063 38.6299 36.46 37.5315C36.504 37.202 36.5369 36.8835 36.5589 36.576C36.5808 36.2685 36.5918 35.9829 36.5918 35.7193C36.5918 34.9944 36.5149 34.3903 36.3612 33.9071C36.2074 33.4018 35.9877 33.0064 35.7022 32.7209C35.4166 32.4133 35.0871 32.1937 34.7137 32.0619C34.3402 31.9301 33.9339 31.8642 33.4945 31.8642H29.7382L28.1566 43.1989H31.9129ZM40.5185 42.6388C40.5185 41.1451 40.7052 39.9039 41.0787 38.9154C41.4741 37.905 41.9793 37.1032 42.5944 36.5101C43.2314 35.917 43.9343 35.4996 44.7032 35.258C45.494 34.9944 46.2848 34.8626 47.0756 34.8626H53.8962C53.7424 33.8082 53.38 33.0504 52.8088 32.5891C52.2597 32.1058 51.6117 31.8642 50.8648 31.8642H43.0886L43.6817 27.6136H51.9521C52.8967 27.6136 53.7754 27.7454 54.5881 28.009C55.4009 28.2726 56.1038 28.701 56.6969 29.2941C57.312 29.8652 57.7843 30.6231 58.1138 31.5676C58.4652 32.4902 58.641 33.6215 58.641 34.9615C58.641 35.7523 58.5751 36.609 58.4433 37.5315C58.1797 39.3767 57.7513 40.9364 57.1582 42.2104C56.5651 43.4625 55.8512 44.484 55.0165 45.2748C54.2037 46.0656 53.2921 46.6367 52.2816 46.9882C51.2931 47.3177 50.2607 47.4824 49.1844 47.4824H45.3292C44.6482 47.4824 44.0112 47.3946 43.4181 47.2188C42.825 47.0431 42.3088 46.7685 41.8695 46.3951C41.4521 46.0216 41.1226 45.5274 40.881 44.9123C40.6393 44.2973 40.5185 43.5394 40.5185 42.6388ZM45.1645 41.6173C45.1645 42.1885 45.3072 42.5949 45.5928 42.8365C45.9003 43.0781 46.2628 43.1989 46.6802 43.1989H49.2832C50.1619 43.1989 50.9856 42.8804 51.7544 42.2434C52.5452 41.5844 53.1383 40.53 53.5337 39.0802H47.2403C46.779 39.0802 46.3507 39.234 45.9553 39.5415C45.5599 39.849 45.3072 40.3872 45.1974 41.156C45.1754 41.2439 45.1645 41.3318 45.1645 41.4196C45.1645 41.4855 45.1645 41.5514 45.1645 41.6173ZM58.6865 43.1989H68.1432C68.7143 43.1989 69.2195 43.0452 69.6589 42.7376C70.0982 42.4301 70.3179 41.8809 70.3179 41.0901C70.3179 40.5629 70.1531 40.2005 69.8236 40.0028C69.5161 39.7831 69.1207 39.6733 68.6374 39.6733H64.4528C63.6839 39.6733 62.981 39.5964 62.344 39.4426C61.7289 39.2889 61.2017 39.0363 60.7624 38.6848C60.3231 38.3333 59.9826 37.872 59.7409 37.3009C59.5213 36.7298 59.4114 36.0268 59.4114 35.1921C59.4114 33.7423 59.5872 32.5341 59.9386 31.5676C60.2901 30.6011 60.7624 29.8213 61.3555 29.2282C61.9705 28.6351 62.6845 28.2177 63.4972 27.9761C64.332 27.7344 65.2106 27.6136 66.1332 27.6136H76.0511L75.458 31.8642H66.0014C65.4083 31.8642 64.8921 32.0289 64.4528 32.3584C64.0134 32.6659 63.7938 33.2151 63.7938 34.0059C63.7938 34.5331 63.9475 34.8956 64.2551 35.0933C64.5846 35.291 65.0019 35.3898 65.5072 35.3898H69.7248C71.2624 35.3898 72.4816 35.7303 73.3822 36.4113C74.3048 37.0702 74.7661 38.2345 74.7661 39.9039C74.7661 40.1456 74.7551 40.3982 74.7331 40.6618C74.7112 40.9254 74.6782 41.2 74.6343 41.4855C74.4805 42.6278 74.2059 43.5833 73.8105 44.3522C73.4371 45.121 72.9648 45.7361 72.3937 46.1974C71.8445 46.6587 71.1965 46.9882 70.4497 47.1859C69.7248 47.3836 68.923 47.4824 68.0443 47.4824H58.0934L58.6865 43.1989Z" fill="#C8161D"/>
<path d="M77.9803 42.3093C77.9803 42.0677 77.9912 41.826 78.0132 41.5844C78.0352 41.3208 78.0681 41.0462 78.1121 40.7606L79.3971 31.7653H76.4975L77.0906 27.5148H79.9902L80.6492 22.8029H85.2292L84.5702 27.5148H88.6231L88.03 31.7653H83.9771L82.6262 41.3867C82.6042 41.4746 82.5932 41.6064 82.5932 41.7821C82.5932 42.3313 82.758 42.7047 83.0875 42.9024C83.439 43.1001 83.8673 43.1989 84.3725 43.1989H86.4154L85.8223 47.4824H83.3181C82.5493 47.4824 81.8354 47.3946 81.1764 47.2188C80.5394 47.0211 79.9792 46.7246 79.4959 46.3292C79.0347 45.9118 78.6612 45.3736 78.3757 44.7146C78.1121 44.0556 77.9803 43.2538 77.9803 42.3093ZM87.0291 40.1346C87.0291 39.3218 87.095 38.4541 87.2268 37.5315C87.4904 35.6205 87.9407 34.0059 88.5778 32.6879C89.2368 31.3699 90.0276 30.3045 90.9502 29.4918C91.8728 28.657 92.8942 28.053 94.0145 27.6795C95.1348 27.3061 96.31 27.1194 97.5401 27.1194C98.5945 27.1194 99.583 27.2622 100.506 27.5477C101.428 27.8333 102.23 28.2946 102.911 28.9316C103.614 29.5467 104.163 30.3595 104.558 31.3699C104.954 32.3584 105.152 33.5776 105.152 35.0274C105.152 35.8182 105.086 36.6529 104.954 37.5315C104.69 39.4426 104.218 41.0682 103.537 42.4081C102.878 43.7261 102.087 44.8025 101.165 45.6372C100.242 46.45 99.2206 47.0431 98.1003 47.4165C96.98 47.768 95.8267 47.9437 94.6406 47.9437C93.5642 47.9437 92.5537 47.8009 91.6092 47.5154C90.6866 47.2518 89.8848 46.8124 89.2038 46.1974C88.5229 45.5603 87.9847 44.7476 87.5893 43.7591C87.2158 42.7706 87.0291 41.5624 87.0291 40.1346ZM91.6751 39.4097C91.6751 40.2225 91.7629 40.9034 91.9387 41.4526C92.1144 42.0018 92.356 42.4411 92.6636 42.7706C92.9931 43.1001 93.3775 43.3417 93.8168 43.4955C94.2561 43.6273 94.7284 43.6932 95.2337 43.6932C95.8267 43.6932 96.3869 43.5943 96.9141 43.3966C97.4633 43.1989 97.9575 42.8585 98.3968 42.3752C98.8581 41.8919 99.2535 41.2659 99.583 40.497C99.9125 39.7062 100.165 38.7177 100.341 37.5315C100.385 37.1801 100.418 36.8506 100.44 36.5431C100.462 36.2355 100.473 35.939 100.473 35.6534C100.473 34.8406 100.374 34.1707 100.176 33.6435C100 33.0943 99.7588 32.655 99.4512 32.3255C99.1437 31.996 98.7703 31.7653 98.3309 31.6335C97.8916 31.4797 97.4303 31.4029 96.947 31.4029C96.3539 31.4029 95.7828 31.5017 95.2337 31.6994C94.6845 31.8971 94.1793 32.2376 93.718 32.7209C93.2786 33.1822 92.8832 33.8082 92.5318 34.599C92.2023 35.3678 91.9606 36.3454 91.8069 37.5315C91.7629 37.883 91.73 38.2125 91.708 38.52C91.686 38.8276 91.6751 39.1241 91.6751 39.4097Z" fill="#FFCA40"/>
</svg>
