<svg width="37" height="37" viewBox="0 0 37 37" fill="none" xmlns="http://www.w3.org/2000/svg">
<path d="M10.5837 10.2177C7.70235 9.13 2.66744 8.83862 2.66744 8.83862C2.66744 8.83862 3.01163 9.85475 3.35581 13.6289C3.7 17.4031 0 32.645 0 32.645C0 32.645 9.04686 33.5122 14.8 34.3144C21.0548 35.1865 30.7186 36.9998 30.7186 36.9998C30.7186 36.9998 29.7353 28.6208 31.2349 23.4999C32.544 19.0294 37 12.758 37 12.758C37 12.758 32.449 12.6242 29.6 13.0483C25.2308 13.6987 19.0163 16.5322 19.0163 16.5322C19.0163 16.5322 14.6032 11.7349 10.5837 10.2177Z" fill="#C8161D"/>
<path d="M20.5668 1.65333C17.1249 3.32268 15.5761 6.15331 13.4249 10.871L11.0156 9.63717C11.0156 9.63717 13.226 5.42226 15.5761 3.32268C17.0353 2.01903 17.7745 0.982765 19.7924 0.419458C21.1993 0.0267037 22.1666 -0.178389 23.5784 0.201717C24.9233 0.563807 25.5101 1.17686 26.418 2.08881C27.4134 3.08874 27.6574 3.84984 28.2249 5.06461C29.4726 7.73522 29.6017 12.3227 29.6017 12.3227L27.1063 12.6856C27.1063 12.6856 27.0681 8.06998 26.0738 5.28235C25.7123 4.26894 25.6934 3.59773 24.9552 2.74203C24.3952 2.09299 24.0524 1.6131 23.1482 1.363C22.1818 1.09573 20.5668 1.65333 20.5668 1.65333Z" fill="#C8161D"/>
<path d="M7.35797 29.1873C6.29603 28.9777 5.52203 28.4645 5.03597 27.6477C4.56687 26.8196 4.46088 25.7542 4.71802 24.4515L5.74096 19.2692L3.82946 18.8919L4.15647 17.2353L6.11044 17.621L7.20154 14.2175L8.66702 14.5067L7.97947 17.9899L11.0379 18.5936L10.7109 20.2502L7.65246 19.6465L6.60017 24.9775C6.43806 25.7987 6.49478 26.4057 6.77032 26.7985C7.06002 27.194 7.44558 27.4393 7.92699 27.5343C8.28097 27.6042 8.62489 27.6132 8.95876 27.5614C9.30678 27.5125 9.63068 27.4366 9.93045 27.334L10.1596 28.968C9.84284 29.082 9.4284 29.1694 8.91624 29.2301C8.40129 29.305 7.88186 29.2907 7.35797 29.1873ZM15.3211 30.7592C14.2733 30.5523 13.3792 30.1258 12.6388 29.4795C11.9013 28.819 11.377 28.0094 11.0661 27.0506C10.7721 26.0805 10.7369 25.0291 10.9605 23.8964C11.1953 22.707 11.6386 21.7279 12.2905 20.9593C12.9424 20.1906 13.7322 19.655 14.6598 19.3527C15.5875 19.0503 16.5681 19.0012 17.6017 19.2052C18.6354 19.4092 19.5167 19.8259 20.2457 20.4553C20.9888 21.0874 21.5159 21.8829 21.8268 22.8416C22.1547 23.789 22.2026 24.8503 21.9707 26.0255C21.7387 27.2008 21.2953 28.1798 20.6406 28.9626C19.9887 29.7313 19.1976 30.2739 18.2671 30.5904C17.3509 30.9097 16.3688 30.966 15.3211 30.7592ZM15.6565 29.0601C16.775 29.2809 17.7199 29.0775 18.491 28.4501C19.265 27.8084 19.7707 26.8859 20.0083 25.6823C20.1536 24.946 20.1306 24.2427 19.9393 23.5724C19.7508 22.8879 19.4238 22.3085 18.9584 21.8341C18.51 21.3484 17.946 21.0385 17.2663 20.9043C16.1478 20.6835 15.2043 20.8798 14.4359 21.4931C13.6676 22.1064 13.1632 23.0219 12.9229 24.2396C12.7775 24.9759 12.7977 25.6933 12.9835 26.392C13.172 27.0765 13.4905 27.6616 13.9389 28.1473C14.4043 28.6216 14.9768 28.9259 15.6565 29.0601Z" fill="white"/>
<path d="M7.35797 29.1873C6.29603 28.9777 5.52203 28.4645 5.03597 27.6477C4.56687 26.8196 4.46088 25.7542 4.71802 24.4515L5.74096 19.2692L3.82946 18.8919L4.15647 17.2353L6.11044 17.621L7.20154 14.2175L8.66702 14.5067L7.97947 17.9899L11.0379 18.5936L10.7109 20.2502L7.65246 19.6465L6.60017 24.9775C6.43806 25.7987 6.49478 26.4057 6.77032 26.7985C7.06002 27.194 7.44558 27.4393 7.92699 27.5343C8.28097 27.6042 8.62489 27.6132 8.95876 27.5614C9.30678 27.5125 9.63068 27.4366 9.93045 27.334L10.1596 28.968C9.84284 29.082 9.4284 29.1694 8.91624 29.2301C8.40129 29.305 7.88186 29.2907 7.35797 29.1873ZM15.3211 30.7592C14.2733 30.5523 13.3792 30.1258 12.6388 29.4795C11.9013 28.819 11.377 28.0094 11.0661 27.0506C10.7721 26.0805 10.7369 25.0291 10.9605 23.8964C11.1953 22.707 11.6386 21.7279 12.2905 20.9593C12.9424 20.1906 13.7322 19.655 14.6598 19.3527C15.5875 19.0503 16.5681 19.0012 17.6017 19.2052C18.6354 19.4092 19.5167 19.8259 20.2457 20.4553C20.9888 21.0874 21.5159 21.8829 21.8268 22.8416C22.1547 23.789 22.2026 24.8503 21.9707 26.0255C21.7387 27.2008 21.2953 28.1798 20.6406 28.9626C19.9887 29.7313 19.1976 30.2739 18.2671 30.5904C17.3509 30.9097 16.3688 30.966 15.3211 30.7592ZM15.6565 29.0601C16.775 29.2809 17.7199 29.0775 18.491 28.4501C19.265 27.8084 19.7707 26.8859 20.0083 25.6823C20.1536 24.946 20.1306 24.2427 19.9393 23.5724C19.7508 22.8879 19.4238 22.3085 18.9584 21.8341C18.51 21.3484 17.946 21.0385 17.2663 20.9043C16.1478 20.6835 15.2043 20.8798 14.4359 21.4931C13.6676 22.1064 13.1632 23.0219 12.9229 24.2396C12.7775 24.9759 12.7977 25.6933 12.9835 26.392C13.172 27.0765 13.4905 27.6616 13.9389 28.1473C14.4043 28.6216 14.9768 28.9259 15.6565 29.0601Z" fill="#B1A000"/>
</svg>
