<svg width="480" height="480" viewBox="0 0 480 480" fill="none" xmlns="http://www.w3.org/2000/svg">
<path d="M438.355 215.674H52.7616V233.549H438.355V215.674Z" fill="#263238"/>
<path d="M323.942 147.465C328.061 156.508 339.638 163.44 345.216 165.12C345.216 165.12 360.154 170.342 371.357 161.683C382.56 153.024 385.027 136.224 374.458 119.865C363.888 103.507 341.309 107.03 331.632 116.236C321.955 125.443 319.834 138.422 323.942 147.465ZM355.2 132.48C358.838 135.648 359.04 140.16 355.44 142.339C354.428 142.918 353.278 143.213 352.112 143.193C350.946 143.173 349.807 142.838 348.816 142.224C347.686 141.61 346.828 140.595 346.41 139.379C345.993 138.164 346.046 136.835 346.56 135.657C347.616 133.084 351.59 129.302 355.2 132.48Z" fill="white" stroke="#263238" stroke-width="0.96" stroke-miterlimit="10"/>
<path d="M332.16 117.515C330.758 121.998 330.077 123.275 327.763 125.483C325.45 127.691 324.221 131.367 324.499 133.307C324.83 135.608 324.933 137.936 324.806 140.257C324.755 141.849 325.075 143.431 325.741 144.877C326.408 146.324 327.403 147.595 328.646 148.59C330.693 150.082 332.453 151.933 333.84 154.052C335.866 156.846 335.203 157.479 338.237 159.006C341.27 160.532 347.002 163.585 347.002 163.585C347.002 163.585 353.549 166.465 356.486 165.275C359.424 164.084 362.918 159.793 365.203 158.881C367.488 157.969 368.554 160.417 371.578 156.001C374.602 151.585 375.485 148.187 377.338 146.449C379.19 144.711 379.632 138.596 377.117 135.956C374.577 133.51 373.096 130.168 372.989 126.644C372.614 122.276 371.386 119.655 366.749 118.091C362.112 116.526 358.646 112.561 356.909 111.063C355.171 109.566 350.477 109.931 347.53 111.467C344.582 113.003 341.904 110.507 338.803 111.899C337.843 112.34 336.883 112.619 336.125 112.935C335.303 113.417 334.508 113.942 333.744 114.51C333.014 115.391 332.475 116.414 332.16 117.515ZM346.963 133.441C348.883 133.806 349.949 130.283 353.338 130.206C356.726 130.129 354.749 132.02 355.258 132.51C356.047 133.189 356.716 133.998 357.235 134.9C357.814 135.64 358.203 136.51 358.368 137.435C358.313 139.009 358.786 140.557 359.712 141.831C360.797 143.31 358.378 143.415 356.266 143.847C354.154 144.279 354 144.107 352.349 145.355C350.698 146.603 348.336 144.452 348.336 144.452C348.336 144.452 346.896 143.934 345.504 141.476C344.112 139.019 345.581 138.596 344.333 136.599C343.085 134.603 345.034 133.019 346.963 133.441Z" fill="white" stroke="#263238" stroke-width="0.96" stroke-miterlimit="10"/>
<path d="M347.866 121.604C348.788 121.604 349.536 120.857 349.536 119.934C349.536 119.012 348.788 118.264 347.866 118.264C346.943 118.264 346.195 119.012 346.195 119.934C346.195 120.857 346.943 121.604 347.866 121.604Z" fill="white" stroke="#263238" stroke-width="0.96" stroke-miterlimit="10"/>
<path d="M337.834 124.714C338.231 124.714 338.554 124.392 338.554 123.994C338.554 123.597 338.231 123.274 337.834 123.274C337.436 123.274 337.114 123.597 337.114 123.994C337.114 124.392 337.436 124.714 337.834 124.714Z" fill="white" stroke="#263238" stroke-width="0.96" stroke-miterlimit="10"/>
<path d="M342.01 116.823C342.603 116.823 343.085 116.342 343.085 115.748C343.085 115.154 342.603 114.673 342.01 114.673C341.416 114.673 340.934 115.154 340.934 115.748C340.934 116.342 341.416 116.823 342.01 116.823Z" fill="white" stroke="#263238" stroke-width="0.96" stroke-miterlimit="10"/>
<path d="M336.874 132.356C336.874 132.735 336.761 133.107 336.55 133.422C336.339 133.738 336.039 133.984 335.688 134.129C335.337 134.275 334.951 134.313 334.579 134.239C334.207 134.165 333.864 133.982 333.596 133.713C333.327 133.445 333.145 133.103 333.07 132.73C332.996 132.358 333.034 131.972 333.18 131.621C333.325 131.27 333.571 130.97 333.887 130.759C334.203 130.548 334.574 130.436 334.954 130.436C335.463 130.436 335.951 130.638 336.311 130.998C336.671 131.358 336.874 131.846 336.874 132.356Z" fill="white" stroke="#263238" stroke-width="0.96" stroke-miterlimit="10"/>
<path d="M359.098 126.269C359.098 126.529 359.02 126.784 358.876 127C358.731 127.216 358.526 127.385 358.286 127.484C358.045 127.584 357.781 127.61 357.526 127.559C357.271 127.509 357.036 127.383 356.852 127.199C356.668 127.015 356.543 126.781 356.492 126.526C356.442 126.271 356.468 126.006 356.567 125.766C356.667 125.526 356.835 125.32 357.052 125.176C357.268 125.031 357.522 124.954 357.782 124.954C357.955 124.953 358.127 124.986 358.287 125.052C358.447 125.117 358.593 125.214 358.715 125.337C358.838 125.459 358.934 125.604 359 125.765C359.066 125.925 359.099 126.096 359.098 126.269Z" fill="white" stroke="#263238" stroke-width="0.96" stroke-miterlimit="10"/>
<path d="M358.742 119.454C359.336 119.454 359.818 118.973 359.818 118.379C359.818 117.785 359.336 117.304 358.742 117.304C358.149 117.304 357.667 117.785 357.667 118.379C357.667 118.973 358.149 119.454 358.742 119.454Z" fill="white" stroke="#263238" stroke-width="0.96" stroke-miterlimit="10"/>
<path d="M368.64 127.46C368.64 127.768 368.549 128.069 368.378 128.325C368.207 128.58 367.964 128.78 367.68 128.897C367.396 129.015 367.083 129.046 366.781 128.986C366.48 128.926 366.203 128.778 365.985 128.56C365.768 128.343 365.619 128.066 365.559 127.764C365.499 127.462 365.53 127.15 365.648 126.865C365.766 126.581 365.965 126.338 366.221 126.167C366.476 125.996 366.777 125.905 367.085 125.905C367.496 125.908 367.891 126.072 368.182 126.364C368.473 126.655 368.637 127.049 368.64 127.46Z" fill="white" stroke="#263238" stroke-width="0.96" stroke-miterlimit="10"/>
<path d="M370.56 140.602C370.56 140.862 370.483 141.117 370.338 141.333C370.194 141.549 369.988 141.718 369.748 141.817C369.508 141.917 369.243 141.943 368.988 141.892C368.733 141.841 368.499 141.716 368.315 141.532C368.131 141.348 368.006 141.114 367.955 140.859C367.904 140.604 367.93 140.339 368.03 140.099C368.129 139.859 368.298 139.653 368.514 139.509C368.73 139.364 368.985 139.287 369.245 139.287C369.594 139.287 369.928 139.426 370.175 139.672C370.421 139.919 370.56 140.254 370.56 140.602Z" fill="white" stroke="#263238" stroke-width="0.96" stroke-miterlimit="10"/>
<path d="M362.448 154.1C362.45 154.386 362.367 154.665 362.21 154.903C362.053 155.141 361.829 155.327 361.566 155.438C361.303 155.548 361.013 155.578 360.733 155.523C360.453 155.469 360.196 155.333 359.993 155.132C359.791 154.931 359.653 154.674 359.596 154.394C359.54 154.115 359.568 153.825 359.677 153.561C359.785 153.297 359.97 153.072 360.207 152.913C360.444 152.755 360.723 152.67 361.008 152.67C361.388 152.67 361.753 152.82 362.023 153.088C362.293 153.356 362.445 153.72 362.448 154.1Z" fill="white" stroke="#263238" stroke-width="0.96" stroke-miterlimit="10"/>
<path d="M345.715 158.4C346.903 158.4 347.866 157.438 347.866 156.25C347.866 155.062 346.903 154.1 345.715 154.1C344.528 154.1 343.565 155.062 343.565 156.25C343.565 157.438 344.528 158.4 345.715 158.4Z" fill="white" stroke="#263238" stroke-width="0.96" stroke-miterlimit="10"/>
<path d="M337.709 144.308C338.303 144.308 338.784 143.826 338.784 143.232C338.784 142.639 338.303 142.157 337.709 142.157C337.115 142.157 336.634 142.639 336.634 143.232C336.634 143.826 337.115 144.308 337.709 144.308Z" fill="white" stroke="#263238" stroke-width="0.96" stroke-miterlimit="10"/>
<path d="M349.306 148.608C349.306 148.798 349.249 148.984 349.144 149.142C349.038 149.3 348.888 149.423 348.713 149.495C348.538 149.568 348.345 149.587 348.158 149.55C347.972 149.513 347.801 149.422 347.667 149.287C347.532 149.153 347.441 148.982 347.404 148.796C347.367 148.609 347.386 148.416 347.459 148.241C347.531 148.066 347.654 147.916 347.812 147.81C347.97 147.705 348.156 147.648 348.346 147.648C348.6 147.648 348.844 147.75 349.024 147.93C349.204 148.11 349.306 148.354 349.306 148.608Z" fill="white" stroke="#263238" stroke-width="0.96" stroke-miterlimit="10"/>
<path d="M330.422 138.24C330.422 138.406 330.373 138.567 330.282 138.704C330.19 138.842 330.059 138.949 329.907 139.012C329.754 139.075 329.586 139.092 329.424 139.06C329.262 139.027 329.113 138.948 328.997 138.831C328.88 138.714 328.8 138.565 328.768 138.403C328.736 138.241 328.752 138.073 328.816 137.921C328.879 137.768 328.986 137.638 329.123 137.546C329.26 137.454 329.422 137.405 329.587 137.405C329.809 137.405 330.021 137.493 330.178 137.65C330.334 137.807 330.422 138.019 330.422 138.24Z" fill="white" stroke="#263238" stroke-width="0.96" stroke-miterlimit="10"/>
<path d="M337.114 116.593C337.114 116.736 337.071 116.875 336.992 116.993C336.913 117.112 336.801 117.204 336.669 117.258C336.538 117.313 336.393 117.327 336.253 117.299C336.113 117.272 335.985 117.203 335.884 117.102C335.784 117.002 335.715 116.873 335.687 116.734C335.66 116.594 335.674 116.449 335.728 116.318C335.783 116.186 335.875 116.074 335.994 115.994C336.112 115.915 336.251 115.873 336.394 115.873C336.488 115.872 336.583 115.89 336.671 115.925C336.759 115.961 336.838 116.014 336.906 116.081C336.973 116.148 337.026 116.228 337.061 116.316C337.097 116.404 337.115 116.498 337.114 116.593Z" fill="white" stroke="#263238" stroke-width="0.96" stroke-miterlimit="10"/>
<path d="M345.955 126.27C345.955 126.348 345.94 126.425 345.91 126.498C345.88 126.57 345.836 126.635 345.781 126.691C345.726 126.746 345.66 126.79 345.588 126.82C345.516 126.85 345.438 126.865 345.36 126.865C345.214 126.847 345.08 126.775 344.982 126.665C344.885 126.554 344.831 126.412 344.831 126.265C344.831 126.118 344.885 125.976 344.982 125.865C345.08 125.755 345.214 125.684 345.36 125.665C345.519 125.668 345.67 125.732 345.781 125.846C345.893 125.959 345.955 126.111 345.955 126.27Z" fill="white" stroke="#263238" stroke-width="0.96" stroke-miterlimit="10"/>
<path d="M363.398 134.631C363.398 134.796 363.349 134.958 363.258 135.095C363.166 135.232 363.035 135.34 362.883 135.403C362.73 135.466 362.562 135.482 362.4 135.45C362.238 135.418 362.089 135.338 361.973 135.222C361.856 135.105 361.776 134.956 361.744 134.794C361.712 134.632 361.728 134.464 361.792 134.311C361.855 134.159 361.962 134.028 362.099 133.937C362.237 133.845 362.398 133.796 362.563 133.796C362.673 133.796 362.782 133.817 362.883 133.859C362.984 133.901 363.076 133.963 363.154 134.041C363.231 134.118 363.293 134.21 363.335 134.311C363.377 134.413 363.398 134.521 363.398 134.631Z" fill="white" stroke="#263238" stroke-width="0.96" stroke-miterlimit="10"/>
<path d="M371.29 148.128C371.291 148.413 371.209 148.692 371.052 148.93C370.895 149.168 370.67 149.354 370.407 149.465C370.144 149.575 369.855 149.605 369.575 149.551C369.295 149.496 369.037 149.36 368.835 149.159C368.632 148.958 368.494 148.701 368.438 148.422C368.382 148.142 368.41 147.852 368.518 147.588C368.627 147.325 368.812 147.099 369.049 146.941C369.286 146.782 369.564 146.697 369.85 146.697C370.038 146.696 370.225 146.732 370.4 146.803C370.575 146.875 370.733 146.98 370.867 147.113C371.001 147.246 371.107 147.404 371.18 147.578C371.252 147.752 371.29 147.939 371.29 148.128Z" fill="white" stroke="#263238" stroke-width="0.96" stroke-miterlimit="10"/>
<path d="M342.845 136.321C342.845 136.582 342.767 136.836 342.622 137.053C342.478 137.269 342.272 137.438 342.031 137.537C341.79 137.636 341.525 137.662 341.269 137.61C341.014 137.559 340.78 137.433 340.596 137.248C340.413 137.063 340.288 136.827 340.239 136.572C340.189 136.316 340.216 136.051 340.317 135.811C340.418 135.571 340.588 135.366 340.806 135.223C341.023 135.079 341.279 135.004 341.539 135.006C341.711 135.006 341.882 135.04 342.041 135.106C342.2 135.172 342.344 135.269 342.466 135.392C342.587 135.514 342.683 135.659 342.748 135.819C342.813 135.978 342.846 136.149 342.845 136.321Z" fill="white" stroke="#263238" stroke-width="0.96" stroke-miterlimit="10"/>
<path d="M336.874 148.129C336.874 148.319 336.817 148.504 336.712 148.662C336.606 148.82 336.456 148.943 336.281 149.016C336.106 149.089 335.913 149.108 335.726 149.071C335.54 149.033 335.369 148.942 335.235 148.808C335.101 148.674 335.009 148.502 334.972 148.316C334.935 148.13 334.954 147.937 335.027 147.762C335.099 147.586 335.222 147.436 335.38 147.331C335.538 147.225 335.724 147.169 335.914 147.169C336.168 147.169 336.412 147.27 336.592 147.45C336.772 147.63 336.874 147.874 336.874 148.129Z" fill="white" stroke="#263238" stroke-width="0.96" stroke-miterlimit="10"/>
<path d="M331.622 130.205C331.624 130.443 331.556 130.676 331.425 130.874C331.294 131.073 331.107 131.228 330.888 131.321C330.669 131.413 330.428 131.438 330.194 131.393C329.961 131.348 329.746 131.234 329.577 131.067C329.409 130.899 329.293 130.685 329.246 130.452C329.199 130.219 329.222 129.978 329.313 129.758C329.403 129.538 329.557 129.35 329.755 129.218C329.952 129.085 330.185 129.015 330.422 129.015C330.739 129.015 331.043 129.14 331.268 129.363C331.492 129.586 331.62 129.888 331.622 130.205Z" fill="white" stroke="#263238" stroke-width="0.96" stroke-miterlimit="10"/>
<path d="M353.126 114.913C353.128 115.055 353.088 115.195 353.01 115.315C352.932 115.435 352.82 115.529 352.689 115.585C352.557 115.641 352.412 115.656 352.272 115.629C352.132 115.603 352.002 115.535 351.901 115.435C351.799 115.334 351.73 115.206 351.701 115.066C351.672 114.926 351.686 114.781 351.74 114.649C351.794 114.517 351.887 114.404 352.005 114.324C352.124 114.245 352.264 114.202 352.406 114.202C352.596 114.202 352.777 114.277 352.912 114.41C353.047 114.543 353.124 114.723 353.126 114.913Z" fill="white" stroke="#263238" stroke-width="0.96" stroke-miterlimit="10"/>
<path d="M109.565 144.816C109.179 144.779 108.812 144.633 108.506 144.395C108.2 144.157 107.968 143.837 107.837 143.472C106.688 140.295 104.653 137.514 101.973 135.457C99.2931 133.4 96.0799 132.154 92.7138 131.866C89.3477 131.578 85.9697 132.261 82.9793 133.833C79.9889 135.405 77.5114 137.8 75.84 140.736C75.6514 141.073 75.3707 141.35 75.0307 141.534C74.6907 141.717 74.3054 141.8 73.92 141.773L71.7024 141.581C71.3471 141.549 70.9895 141.611 70.666 141.761C70.3424 141.911 70.0642 142.144 69.8596 142.437C69.655 142.729 69.5313 143.07 69.5008 143.425C69.4704 143.781 69.5344 144.138 69.6864 144.461L73.6512 153.303C73.968 154.023 74.2848 154.743 74.5536 155.482C75.7717 158.903 78.0138 161.867 80.9751 163.969C83.9365 166.072 87.4735 167.212 91.1053 167.234C94.7371 167.256 98.2877 166.159 101.274 164.092C104.261 162.026 106.539 159.09 107.798 155.683C108.413 154.003 109.066 152.323 109.824 150.701L111.216 147.725C111.363 147.429 111.436 147.102 111.427 146.772C111.418 146.441 111.328 146.118 111.165 145.831C111.001 145.544 110.77 145.301 110.491 145.124C110.212 144.947 109.894 144.841 109.565 144.816Z" fill="white" stroke="#263238" stroke-width="0.96" stroke-miterlimit="10"/>
<path d="M109.565 144.817C109.179 144.78 108.812 144.633 108.506 144.395C108.2 144.158 107.968 143.838 107.837 143.473C107.39 142.244 106.807 141.068 106.099 139.969L102.72 148.494C97.0621 154.67 91.0384 160.501 84.6816 165.956C86.7568 166.776 88.9685 167.197 91.2 167.194H91.9488C97.6124 163.604 102.977 159.562 107.99 155.108C108.557 153.61 109.133 152.122 109.814 150.682L111.206 147.706C111.349 147.412 111.419 147.087 111.408 146.76C111.397 146.434 111.308 146.114 111.146 145.83C110.984 145.545 110.756 145.304 110.48 145.128C110.205 144.951 109.891 144.845 109.565 144.817Z" fill="white" stroke="#263238" stroke-width="0.96" stroke-miterlimit="10"/>
<path d="M91.2192 157.248C105.731 157.248 117.494 145.484 117.494 130.972C117.494 116.461 105.731 104.697 91.2192 104.697C76.7078 104.697 64.944 116.461 64.944 130.972C64.944 145.484 76.7078 157.248 91.2192 157.248Z" fill="white" stroke="#263238" stroke-width="0.96" stroke-miterlimit="10"/>
<path d="M91.2191 153.745C103.795 153.745 113.99 143.55 113.99 130.973C113.99 118.397 103.795 108.202 91.2191 108.202C78.6429 108.202 68.4479 118.397 68.4479 130.973C68.4479 143.55 78.6429 153.745 91.2191 153.745Z" fill="white" stroke="#263238" stroke-width="0.96" stroke-miterlimit="10"/>
<path d="M91.2192 148.656C100.985 148.656 108.902 140.739 108.902 130.973C108.902 121.207 100.985 113.29 91.2192 113.29C81.453 113.29 73.536 121.207 73.536 130.973C73.536 140.739 81.453 148.656 91.2192 148.656Z" fill="white" stroke="#263238" stroke-width="0.96" stroke-miterlimit="10"/>
<path d="M79.9872 118.647L58.3776 107.703L56.64 113.05L77.088 123.706C77.58 124.043 78.1621 124.224 78.7584 124.225C79.4516 124.276 80.1401 124.075 80.6967 123.658C81.2532 123.242 81.6403 122.638 81.7866 121.958C81.9328 121.279 81.8282 120.569 81.4922 119.961C81.1562 119.352 80.6114 118.885 79.9584 118.647H79.9872Z" fill="white" stroke="#263238" stroke-width="0.96" stroke-miterlimit="10"/>
<path d="M59.5871 110.131C59.5871 110.701 59.4182 111.257 59.1018 111.731C58.7853 112.205 58.3355 112.574 57.8093 112.792C57.283 113.01 56.704 113.067 56.1453 112.956C55.5866 112.845 55.0735 112.57 54.6707 112.167C54.2679 111.765 53.9936 111.251 53.8825 110.693C53.7714 110.134 53.8284 109.555 54.0464 109.029C54.2644 108.503 54.6335 108.053 55.1071 107.736C55.5807 107.42 56.1375 107.251 56.7071 107.251C57.471 107.251 58.2035 107.554 58.7436 108.095C59.2837 108.635 59.5871 109.367 59.5871 110.131Z" fill="white" stroke="#263238" stroke-width="0.96" stroke-miterlimit="10"/>
<path d="M197.75 115.037H255.36" stroke="#263238" stroke-width="0.96" stroke-miterlimit="10"/>
<path d="M271.603 115.037H295.728" stroke="#263238" stroke-width="0.96" stroke-miterlimit="10"/>
<path d="M197.75 124.877H255.36" stroke="#263238" stroke-width="0.96" stroke-miterlimit="10"/>
<path d="M271.603 124.877H295.728" stroke="#263238" stroke-width="0.96" stroke-miterlimit="10"/>
<path d="M197.75 134.727H255.36" stroke="#263238" stroke-width="0.96" stroke-miterlimit="10"/>
<path d="M271.603 134.727H295.728" stroke="#263238" stroke-width="0.96" stroke-miterlimit="10"/>
<path d="M197.75 144.576H255.36" stroke="#263238" stroke-width="0.96" stroke-miterlimit="10"/>
<path d="M271.603 144.576H295.728" stroke="#263238" stroke-width="0.96" stroke-miterlimit="10"/>
<path d="M197.75 154.427H255.36" stroke="#263238" stroke-width="0.96" stroke-miterlimit="10"/>
<path d="M271.603 154.427H295.728" stroke="#263238" stroke-width="0.96" stroke-miterlimit="10"/>
<path d="M197.75 174.605H255.36" stroke="#263238" stroke-width="0.96" stroke-miterlimit="10"/>
<path d="M271.603 174.605H295.728" stroke="#263238" stroke-width="0.96" stroke-miterlimit="10"/>
<path d="M197.75 184.454H255.36" stroke="#263238" stroke-width="0.96" stroke-miterlimit="10"/>
<path d="M271.603 184.454H295.728" stroke="#263238" stroke-width="0.96" stroke-miterlimit="10"/>
<path d="M197.75 194.305H255.36" stroke="#263238" stroke-width="0.96" stroke-miterlimit="10"/>
<path d="M271.603 194.305H295.728" stroke="#263238" stroke-width="0.96" stroke-miterlimit="10"/>
<path d="M197.75 204.154H255.36" stroke="#263238" stroke-width="0.96" stroke-miterlimit="10"/>
<path d="M271.603 204.154H295.728" stroke="#263238" stroke-width="0.96" stroke-miterlimit="10"/>
<path d="M197.75 213.994H255.36" stroke="#263238" stroke-width="0.96" stroke-miterlimit="10"/>
<path d="M271.603 213.994H295.728" stroke="#263238" stroke-width="0.96" stroke-miterlimit="10"/>
<path d="M329.702 174.605H387.312" stroke="#263238" stroke-width="0.96" stroke-miterlimit="10"/>
<path d="M403.555 174.605H427.68" stroke="#263238" stroke-width="0.96" stroke-miterlimit="10"/>
<path d="M329.702 184.454H387.312" stroke="#263238" stroke-width="0.96" stroke-miterlimit="10"/>
<path d="M403.555 184.454H427.68" stroke="#263238" stroke-width="0.96" stroke-miterlimit="10"/>
<path d="M329.702 194.305H387.312" stroke="#263238" stroke-width="0.96" stroke-miterlimit="10"/>
<path d="M403.555 194.305H427.68" stroke="#263238" stroke-width="0.96" stroke-miterlimit="10"/>
<path d="M329.702 204.154H387.312" stroke="#263238" stroke-width="0.96" stroke-miterlimit="10"/>
<path d="M403.555 204.154H427.68" stroke="#263238" stroke-width="0.96" stroke-miterlimit="10"/>
<path d="M329.702 213.994H387.312" stroke="#263238" stroke-width="0.96" stroke-miterlimit="10"/>
<path d="M403.555 213.994H427.68" stroke="#263238" stroke-width="0.96" stroke-miterlimit="10"/>
<path d="M60.384 175.594H117.984" stroke="#263238" stroke-width="0.96" stroke-miterlimit="10"/>
<path d="M134.237 175.594H158.362" stroke="#263238" stroke-width="0.96" stroke-miterlimit="10"/>
<path d="M60.384 185.443H117.984" stroke="#263238" stroke-width="0.96" stroke-miterlimit="10"/>
<path d="M134.237 185.443H158.362" stroke="#263238" stroke-width="0.96" stroke-miterlimit="10"/>
<path d="M60.384 195.293H117.984" stroke="#263238" stroke-width="0.96" stroke-miterlimit="10"/>
<path d="M134.237 195.293H158.362" stroke="#263238" stroke-width="0.96" stroke-miterlimit="10"/>
<path d="M60.384 205.133H117.984" stroke="#263238" stroke-width="0.96" stroke-miterlimit="10"/>
<path d="M134.237 205.133H158.362" stroke="#263238" stroke-width="0.96" stroke-miterlimit="10"/>
<path d="M60.384 214.983H117.984" stroke="#263238" stroke-width="0.96" stroke-miterlimit="10"/>
<path d="M134.237 214.983H158.362" stroke="#263238" stroke-width="0.96" stroke-miterlimit="10"/>
<path d="M96.384 267.839C96.384 267.839 96.384 264.143 91.2192 258.978C86.0544 253.813 82.7232 250.856 82.7232 250.856C82.7232 250.856 80.1408 259.352 84.9408 264.517C88.4715 268.151 92.2991 271.484 96.384 274.482V267.839Z" fill="#C8161D"/>
<path d="M88.8865 290.878C88.8865 290.878 88.8865 287.192 83.7121 282.027C78.5377 276.862 75.2257 273.905 75.2257 273.905C75.2257 273.905 72.6433 282.392 77.4433 287.556C80.9711 291.193 84.7991 294.527 88.8865 297.521V290.878Z" fill="#C8161D"/>
<path d="M96.0577 274.107C96.0577 274.107 96.4417 270.44 102.125 265.851C107.808 261.262 111.427 258.67 111.427 258.67C111.427 258.67 113.098 267.387 107.779 272.014C103.89 275.26 99.7347 278.173 95.3569 280.721L96.0577 274.107Z" fill="#C8161D"/>
<path d="M86.9952 301.333C86.9952 301.333 87.7728 297.724 93.9072 293.749C100.042 289.775 103.91 287.596 103.91 287.596C103.91 287.596 104.64 296.428 98.88 300.479C94.6692 303.297 90.2278 305.753 85.6032 307.823L86.9952 301.333Z" fill="#C8161D"/>
<path d="M88.704 331.007C88.704 331.007 88.704 327.311 93.8688 322.146C99.0336 316.981 102.355 314.034 102.355 314.034C102.355 314.034 104.938 322.521 100.138 327.685C96.6116 331.321 92.787 334.654 88.704 337.65V331.007Z" fill="#C8161D"/>
<path d="M88.6176 338.245C88.6176 338.245 89.136 334.597 84.7776 328.751C80.4192 322.904 77.5296 319.506 77.5296 319.506C77.5296 319.506 73.7664 327.541 77.7792 333.33C80.7531 337.441 84.0671 341.294 87.6864 344.85L88.6176 338.245Z" fill="#C8161D"/>
<path d="M83.52 359.711C83.52 359.711 83.52 356.025 88.6848 350.86C93.8496 345.695 97.1712 342.738 97.1712 342.738C97.1712 342.738 99.7536 351.225 94.9632 356.389C91.4353 360.026 87.6074 363.36 83.52 366.354V359.711Z" fill="#C8161D"/>
<path d="M86.9664 379.199C86.9664 379.199 86.0064 375.628 89.7216 369.321C93.4368 363.013 95.8752 359.317 95.8752 359.317C95.8752 359.317 100.531 366.873 97.2 373.084C93.8688 379.295 87.7152 384.162 87.7152 384.162L86.9664 379.199Z" fill="#C8161D"/>
<path d="M96.8448 266.879C96.5855 270.723 96.1144 274.549 95.4336 278.341C93.3888 288.901 88.2816 295.698 86.2464 305.221C84.2112 314.745 90.0864 327.023 88.4928 339.273C86.8992 351.522 82.1568 358.319 83.52 366.489C84.8832 374.658 90.24 400.319 90.24 400.319" stroke="#263238" stroke-width="0.96" stroke-linecap="round" stroke-linejoin="round"/>
<path d="M96.0096 276.565L101.568 272.293" stroke="#263238" stroke-width="0.96" stroke-linecap="round" stroke-linejoin="round"/>
<path d="M96.2592 271.641L93.936 267.503" stroke="#263238" stroke-width="0.96" stroke-linecap="round" stroke-linejoin="round"/>
<path d="M86.5536 304.79C86.5536 304.79 91.2096 301.295 96.0096 297.801" stroke="#263238" stroke-width="0.96" stroke-linecap="round" stroke-linejoin="round"/>
<path d="M88.8864 297.512C86.573 293.023 83.81 288.781 80.64 284.85" stroke="#263238" stroke-width="0.96" stroke-linecap="round" stroke-linejoin="round"/>
<path d="M88.8865 336.257C91.5529 331.348 94.9194 326.853 98.8801 322.913" stroke="#263238" stroke-width="0.96" stroke-linecap="round" stroke-linejoin="round"/>
<path d="M87.9744 341.432C86.5645 338.096 84.8753 334.884 82.9248 331.832C80.208 327.819 79.824 327.301 79.824 327.301" stroke="#263238" stroke-width="0.96" stroke-linecap="round" stroke-linejoin="round"/>
<path d="M83.52 366.498C84.7037 363.565 86.1061 360.725 87.7152 358.002C89.3175 355.486 91.1253 353.107 93.12 350.889" stroke="#263238" stroke-width="0.96" stroke-linecap="round" stroke-linejoin="round"/>
<path d="M87.36 386.457C87.845 383.338 88.7593 380.301 90.0768 377.433C91.9968 373.67 94.224 368.793 95.1264 366.815" stroke="#263238" stroke-width="0.96" stroke-linecap="round" stroke-linejoin="round"/>
<path d="M54.2207 317.125C54.2207 317.125 53.8175 314.811 56.4959 311.01C59.1743 307.208 60.9407 305 60.9407 305C60.9407 305 63.4848 310.04 61.0368 313.803C59.2187 316.466 57.1795 318.971 54.9407 321.291L54.2207 317.125Z" fill="#C8161D"/>
<path d="M61.44 330.766C61.44 330.766 61.0464 328.453 63.7248 324.651C66.4032 320.849 68.16 318.632 68.16 318.632C68.16 318.632 70.704 323.681 68.256 327.435C66.4368 330.1 64.3977 332.608 62.16 334.933L61.44 330.766Z" fill="#C8161D"/>
<path d="M55.104 321.032C55.104 321.032 54.4608 318.776 50.4 316.51C46.3392 314.244 43.7952 313.016 43.7952 313.016C43.7952 313.016 43.6896 318.66 47.5296 320.993C50.3225 322.603 53.2446 323.977 56.2656 325.102L55.104 321.032Z" fill="#C8161D"/>
<path d="M63.744 337.113C63.744 337.113 62.8608 334.933 58.56 333.119C54.2592 331.305 51.6192 330.335 51.6192 330.335C51.6192 330.335 52.1088 335.961 56.1696 337.871C59.1163 339.179 62.1669 340.238 65.2896 341.039L63.744 337.113Z" fill="#C8161D"/>
<path d="M65.8944 355.908C65.8944 355.908 65.4912 353.595 61.6896 350.916C57.888 348.238 55.488 346.75 55.488 346.75C55.488 346.75 54.7872 352.347 58.368 355.064C60.9743 356.963 63.7361 358.639 66.624 360.075L65.8944 355.908Z" fill="#C8161D"/>
<path d="M66.7392 360.441C66.7392 360.441 66.0096 358.214 68.1216 354.067C70.2336 349.92 71.664 347.52 71.664 347.52C71.664 347.52 74.8992 352.156 73.008 356.227C71.5864 359.118 69.9262 361.886 68.0448 364.502L66.7392 360.441Z" fill="#C8161D"/>
<path d="M73.2192 379.112C73.2192 379.112 73.488 376.779 77.1264 373.88C80.7648 370.981 83.088 369.368 83.088 369.368C83.088 369.368 84.1056 374.917 80.6976 377.835C78.202 379.878 75.5399 381.708 72.7392 383.307L73.2192 379.112Z" fill="#C8161D"/>
<path d="M72.2592 373.353C72.2592 373.353 71.856 371.039 68.0544 368.361C64.2528 365.682 61.8528 364.185 61.8528 364.185C61.8528 364.185 61.152 369.791 64.7328 372.508C67.3417 374.403 70.1031 376.079 72.9888 377.519L72.2592 373.353Z" fill="#C8161D"/>
<path d="M72.2112 385.918C72.2112 385.918 72.4032 383.576 69.4081 380.024C66.4129 376.472 64.464 374.398 64.464 374.398C64.464 374.398 62.3712 379.64 65.136 383.182C67.1787 385.676 69.4266 387.995 71.856 390.114L72.2112 385.918Z" fill="#C8161D"/>
<path d="M53.8272 316.588C54.4041 318.969 55.1156 321.315 55.9584 323.615C58.3776 330.009 62.3232 333.724 64.5984 339.484C66.8736 345.244 64.5984 353.567 66.8832 361.074C69.168 368.581 72.96 372.335 72.96 377.605C72.96 382.876 70.5504 398.399 70.5504 398.399" stroke="#263238" stroke-width="0.96" stroke-linecap="round" stroke-linejoin="round"/>
<path d="M55.4016 322.57L51.4464 320.486" stroke="#263238" stroke-width="0.96" stroke-linecap="round" stroke-linejoin="round"/>
<path d="M54.7104 319.505L55.7184 316.654" stroke="#263238" stroke-width="0.96" stroke-linecap="round" stroke-linejoin="round"/>
<path d="M64.3968 339.235C64.3968 339.235 61.0944 337.555 57.6768 335.885" stroke="#263238" stroke-width="0.96" stroke-linecap="round" stroke-linejoin="round"/>
<path d="M62.1408 334.933C63.1171 331.863 64.4038 328.901 65.9808 326.092" stroke="#263238" stroke-width="0.96" stroke-linecap="round" stroke-linejoin="round"/>
<path d="M66.3456 359.221C64.1517 356.436 61.5646 353.985 58.6656 351.944" stroke="#263238" stroke-width="0.96" stroke-linecap="round" stroke-linejoin="round"/>
<path d="M67.4784 362.37C68.008 360.13 68.7208 357.937 69.6096 355.813C70.8768 353.001 71.0592 352.636 71.0592 352.636" stroke="#263238" stroke-width="0.96" stroke-linecap="round" stroke-linejoin="round"/>
<path d="M72.816 381.599C74.102 380.006 75.525 378.528 77.0688 377.183C78.0536 376.459 78.9782 375.656 79.8336 374.783" stroke="#263238" stroke-width="0.96" stroke-linecap="round" stroke-linejoin="round"/>
<path d="M72.96 377.605C71.8995 375.896 70.7121 374.269 69.408 372.737C68.1197 371.346 66.7198 370.061 65.2224 368.897" stroke="#263238" stroke-width="0.96" stroke-linecap="round" stroke-linejoin="round"/>
<path d="M71.856 390.143C71.715 388.357 71.1021 386.641 70.08 385.17C68.4576 383.019 66.5376 380.178 65.76 379.055" stroke="#263238" stroke-width="0.96" stroke-linecap="round" stroke-linejoin="round"/>
<path d="M252.662 153.6C252.662 153.6 279.158 179.203 280.349 192C281.539 204.797 261.888 215.222 267.552 219.389C273.216 223.555 288.672 234.576 282.73 244.099C276.787 253.622 273.802 256.013 275.885 258.096C277.968 260.179 283.027 261.936 282.73 267.024C282.432 272.112 276.48 276.48 276.48 276.48H182.4C182.4 276.48 177.341 276.778 177.936 269.635C178.531 262.493 188.65 258.624 186.864 253.258C185.078 247.891 171.974 243.734 171.974 233.011C171.974 222.288 187.459 217.834 189.84 212.774C192.221 207.715 182.102 204.432 180.019 197.885C177.936 191.338 188.659 180.019 195.197 174.067C201.734 168.115 227.952 150.845 238.397 150.25C248.842 149.654 252.662 153.6 252.662 153.6Z" fill="#263238"/>
<mask id="mask0_179827_5259" style="mask-type:luminance" maskUnits="userSpaceOnUse" x="171" y="150" width="114" height="127">
<path d="M252.662 153.601C252.662 153.601 279.158 179.204 280.349 192.001C281.539 204.798 261.888 215.223 267.552 219.39C273.216 223.556 288.672 234.577 282.73 244.1C276.787 253.623 273.802 256.014 275.885 258.097C277.968 260.18 283.027 261.937 282.73 267.025C282.432 272.113 276.48 276.481 276.48 276.481H182.4C182.4 276.481 177.341 276.779 177.936 269.636C178.531 262.494 188.65 258.625 186.864 253.259C185.078 247.892 171.974 243.735 171.974 233.012C171.974 222.289 187.459 217.835 189.84 212.775C192.221 207.716 182.102 204.433 180.019 197.886C177.936 191.339 188.659 180.02 195.197 174.068C201.734 168.116 227.952 150.846 238.397 150.251C248.842 149.655 252.662 153.601 252.662 153.601Z" fill="white"/>
</mask>
<g mask="url(#mask0_179827_5259)">
<path d="M259.766 160.532C259.766 160.532 274.166 185.694 271.891 195.572C269.616 205.451 254.371 216.692 260.208 224.324C266.045 231.956 274.608 235.105 270.998 244.542C268.855 250.188 265.651 255.372 261.562 259.815" stroke="#858585" stroke-width="0.96" stroke-linecap="round" stroke-linejoin="round"/>
<path d="M195.523 195.131C195.523 195.131 204.509 209.051 202.243 213.092C199.978 217.134 186.97 222.078 188.803 232.408C190.637 242.737 209.472 258.913 209.472 260.718" stroke="#858585" stroke-width="0.96" stroke-linecap="round" stroke-linejoin="round"/>
</g>
<path d="M252.662 153.6C252.662 153.6 279.158 179.203 280.349 192C281.539 204.797 261.888 215.222 267.552 219.389C273.216 223.555 288.672 234.576 282.73 244.099C276.787 253.622 273.802 256.013 275.885 258.096C277.968 260.179 283.027 261.936 282.73 267.024C282.432 272.112 276.48 276.48 276.48 276.48H182.4C182.4 276.48 177.341 276.778 177.936 269.635C178.531 262.493 188.65 258.624 186.864 253.258C185.078 247.891 171.974 243.734 171.974 233.011C171.974 222.288 187.459 217.834 189.84 212.774C192.221 207.715 182.102 204.432 180.019 197.885C177.936 191.338 188.659 180.019 195.197 174.067C201.734 168.115 227.952 150.845 238.397 150.25C248.842 149.654 252.662 153.6 252.662 153.6Z" stroke="#263238" stroke-width="0.96" stroke-linecap="round" stroke-linejoin="round"/>
<path d="M286.675 262.34C286.675 262.34 322.675 318.5 327.955 325.22C333.235 331.94 327.475 342.98 319.315 348.74C311.155 354.5 297.494 349.469 290.41 342.145C283.325 334.82 276.115 317.54 276.115 317.54L286.675 262.34Z" fill="white" stroke="#263238" stroke-width="0.96" stroke-linecap="round" stroke-linejoin="round"/>
<path d="M226.195 243.62C226.195 243.62 192.595 253.7 182.035 257.54C171.475 261.38 168.595 261.86 168.595 265.7C168.595 267.937 176.611 311.434 175.795 348.74C175.21 375.697 165.715 400.1 165.715 400.1H288.115C288.115 400.1 278.074 377.204 278.035 349.7C277.978 311.156 287.798 264.029 286.675 262.34C284.755 259.46 230.515 243.14 226.195 243.62Z" fill="#FFCA40" stroke="#263238" stroke-width="0.96" stroke-linecap="round" stroke-linejoin="round"/>
<path d="M278.4 358.763C274.003 355.335 268.291 349.7 265.555 342.02C261.302 330.107 258.173 266.18 257.52 251.78C255.245 251.089 252.96 250.398 250.714 249.735L251.674 309.86H208.954L205.219 250.043C202.944 250.743 200.65 251.463 198.403 252.174C198.451 264.318 198.451 320.967 195.034 337.22C192.413 349.7 181.498 358.119 174.874 362.18C173.268 375.11 170.218 387.82 165.782 400.071H288.182C282.859 386.873 279.561 372.946 278.4 358.763Z" fill="#263238"/>
<mask id="mask1_179827_5259" style="mask-type:luminance" maskUnits="userSpaceOnUse" x="165" y="249" width="124" height="152">
<path d="M278.4 358.763C274.003 355.335 268.291 349.7 265.555 342.02C261.302 330.107 258.173 266.18 257.52 251.78C255.245 251.089 252.96 250.398 250.714 249.735L251.674 309.86H208.954L205.219 250.043C202.944 250.743 200.65 251.463 198.403 252.174C198.451 264.318 198.451 320.967 195.034 337.22C192.413 349.7 181.498 358.119 174.874 362.18C173.268 375.11 170.218 387.82 165.782 400.071H288.182C282.859 386.873 279.561 372.946 278.4 358.763Z" fill="white"/>
</mask>
<g mask="url(#mask1_179827_5259)">
<path d="M199.766 251.733L198.365 252.175C198.413 264.319 198.413 320.969 194.995 337.221C194.803 338.124 194.563 338.988 194.294 339.842V400.101H199.766V251.733Z" fill="#424242"/>
<path d="M222.854 309.862H217.382V400.102H222.854V309.862Z" fill="#424242"/>
<path d="M171.206 381.814V400.054H176.64V360.963C175.987 361.395 175.354 361.808 174.768 362.172C173.963 368.783 172.774 375.342 171.206 381.814Z" fill="#424242"/>
<path d="M188.218 350.768C186.557 352.786 184.73 354.662 182.755 356.374V400.102H188.218V350.768Z" fill="#424242"/>
<path d="M205.833 260.613V400.101H211.305V309.861H208.915L205.833 260.613Z" fill="#424242"/>
<path d="M263.549 332.325V400.101H269.011V348.837C267.587 346.714 266.427 344.425 265.555 342.021C264.61 338.853 263.938 335.609 263.549 332.325Z" fill="#424242"/>
<path d="M275.088 355.933V400.093H280.56V374.403C279.537 369.236 278.816 364.015 278.4 358.765C277.354 357.949 276.23 356.998 275.088 355.933Z" fill="#424242"/>
<path d="M257.472 251.772C255.648 251.206 253.814 250.659 252.009 250.121V400.102H257.472V251.772Z" fill="#424242"/>
<path d="M245.933 309.862H240.461V400.102H245.933V309.862Z" fill="#424242"/>
<path d="M234.394 309.862H228.922V400.102H234.394V309.862Z" fill="#424242"/>
</g>
<path d="M278.4 358.763C274.003 355.335 268.291 349.7 265.555 342.02C261.302 330.107 258.173 266.18 257.52 251.78C255.245 251.089 252.96 250.398 250.714 249.735L251.674 309.86H208.954L205.219 250.043C202.944 250.743 200.65 251.463 198.403 252.174C198.451 264.318 198.451 320.967 195.034 337.22C192.413 349.7 181.498 358.119 174.874 362.18C173.268 375.11 170.218 387.82 165.782 400.071H288.182C282.859 386.873 279.561 372.946 278.4 358.763Z" stroke="#263238" stroke-width="0.96" stroke-linecap="round" stroke-linejoin="round"/>
<path d="M222.298 234.837C222.298 234.837 209.818 239.301 207.408 244.36C204.998 249.419 206.218 269.32 204.134 275.32C202.051 281.32 196.992 285.746 199.68 286.082C202.368 286.418 210.394 274.168 214.56 275.656C218.726 277.144 230.045 292.629 230.938 292.629C231.83 292.629 240.47 282.213 242.256 278.939C244.042 275.666 250.589 280.725 253.565 288.165C256.541 295.605 257.405 292.965 257.405 290.248C257.405 287.531 253.834 275.954 254.429 273.871C255.024 271.787 254.131 261.391 254.131 250.946C254.193 246.836 252.788 242.839 250.168 239.672C247.548 236.505 243.885 234.375 239.837 233.666C233.28 232.447 222.298 234.837 222.298 234.837Z" fill="#FFCA40" stroke="#263238" stroke-width="0.96" stroke-linecap="round" stroke-linejoin="round"/>
<path d="M216.634 227.387V261.035C216.634 261.035 227.654 297.352 231.523 294.635C235.392 291.918 244.33 262.484 244.33 262.484V227.684C244.33 227.684 230.63 233.646 216.634 227.387Z" fill="white" stroke="#263238" stroke-width="0.96" stroke-linecap="round" stroke-linejoin="round"/>
<path d="M216.634 227.387V234.385C222.202 237.582 228.758 239.742 234.662 239.742C238.026 239.701 241.334 238.882 244.33 237.352V227.684C244.33 227.684 230.63 233.646 216.634 227.387Z" fill="#263238" stroke="#263238" stroke-width="0.96" stroke-linecap="round" stroke-linejoin="round"/>
<path d="M205.325 190.771C205.325 190.771 198.778 182.131 194.899 188.381C191.021 194.63 201.158 206.246 204.134 205.949C207.11 205.651 205.325 190.771 205.325 190.771Z" fill="white" stroke="#263238" stroke-width="0.96" stroke-linecap="round" stroke-linejoin="round"/>
<path d="M257.981 190.771C257.981 190.771 264.528 182.131 268.406 188.381C272.285 194.63 262.147 206.246 259.171 205.949C256.195 205.651 257.981 190.771 257.981 190.771Z" fill="white" stroke="#263238" stroke-width="0.96" stroke-linecap="round" stroke-linejoin="round"/>
<path d="M204.48 178.676C204.48 178.676 201.178 208.436 204.067 217.076C206.957 225.716 222.24 235.249 234.634 235.249C247.027 235.249 257.338 223.278 258.998 216.25C260.659 209.223 256.925 164.218 254.448 159.265C251.971 154.311 236.285 153.898 220.589 161.742C204.893 169.585 204.48 178.676 204.48 178.676Z" fill="white" stroke="#263238" stroke-width="0.96" stroke-linecap="round" stroke-linejoin="round"/>
<path d="M235.392 183.36C235.392 183.36 232.714 190.512 235.094 194.679C237.475 198.845 235.987 201.821 233.309 201.821C230.63 201.821 229.469 197.357 229.469 197.357" stroke="#263238" stroke-width="0.96" stroke-linecap="round" stroke-linejoin="round"/>
<path d="M220.214 204.759C220.214 204.759 232.694 213.399 243.734 204.759" stroke="#263238" stroke-width="0.96" stroke-linecap="round" stroke-linejoin="round"/>
<path d="M238.08 179.156C238.08 179.156 243.446 173.204 249.696 179.751" stroke="#263238" stroke-width="0.96" stroke-linecap="round" stroke-linejoin="round"/>
<path d="M225.869 178.56C225.869 178.56 220.512 172.906 213.955 177.965" stroke="#263238" stroke-width="0.96" stroke-linecap="round" stroke-linejoin="round"/>
<path d="M243.139 191.655C244.125 191.655 244.925 190.056 244.925 188.084C244.925 186.112 244.125 184.513 243.139 184.513C242.153 184.513 241.354 186.112 241.354 188.084C241.354 190.056 242.153 191.655 243.139 191.655Z" fill="#263238"/>
<path d="M220.81 191.655C221.796 191.655 222.595 190.056 222.595 188.084C222.595 186.112 221.796 184.513 220.81 184.513C219.823 184.513 219.024 186.112 219.024 188.084C219.024 190.056 219.823 191.655 220.81 191.655Z" fill="#263238"/>
<path d="M212.16 193.152C215.218 192.648 218.337 192.648 221.395 193.152" stroke="#263238" stroke-width="0.96" stroke-linecap="round" stroke-linejoin="round"/>
<path d="M242.544 193.451C245.495 192.907 248.521 192.907 251.472 193.451" stroke="#263238" stroke-width="0.96" stroke-linecap="round" stroke-linejoin="round"/>
<path d="M190.138 195.841C190.138 195.841 236.88 176.487 248.198 167.55C259.517 158.612 262.483 141.351 235.987 142.244C209.491 143.137 181.507 174.107 179.126 188.391C176.746 202.676 186.24 199.681 186.24 199.681" fill="#263238"/>
<mask id="mask2_179827_5259" style="mask-type:luminance" maskUnits="userSpaceOnUse" x="178" y="142" width="79" height="58">
<path d="M190.138 195.841C190.138 195.841 236.88 176.487 248.198 167.55C259.517 158.612 262.483 141.351 235.987 142.244C209.491 143.137 181.507 174.107 179.126 188.391C176.746 202.676 186.24 199.681 186.24 199.681" fill="white"/>
</mask>
<g mask="url(#mask2_179827_5259)">
<path d="M253.92 143.041C243.116 156.203 230.031 167.311 215.29 175.835C190.579 190.235 174.854 192.913 174.854 192.913" stroke="#858585" stroke-width="0.96" stroke-linecap="round" stroke-linejoin="round"/>
<path d="M236.4 138.52C236.4 138.52 214.387 173.08 173.51 186.587" stroke="#858585" stroke-width="0.96" stroke-linecap="round" stroke-linejoin="round"/>
</g>
<path d="M190.138 195.841C190.138 195.841 236.88 176.487 248.198 167.55C259.517 158.612 262.483 141.351 235.987 142.244C209.491 143.137 181.507 174.107 179.126 188.391C176.746 202.676 186.24 199.681 186.24 199.681" stroke="#263238" stroke-width="0.96" stroke-linecap="round" stroke-linejoin="round"/>
<path d="M289.555 302.9C289.555 302.9 284.035 300.5 277.555 298.34C271.075 296.18 267.475 300.5 270.115 304.34C272.755 308.18 282.115 308.9 286.675 312.98C291.235 317.06 294.835 330.26 299.395 332.66C302.406 334.165 305.653 335.139 308.995 335.54V302.9H289.555Z" fill="white" stroke="#263238" stroke-width="0.96" stroke-linecap="round" stroke-linejoin="round"/>
<path d="M317.789 342.145H290.41L284.285 285.668H323.914L317.789 342.145Z" fill="#C8161D" stroke="#263238" stroke-width="0.96" stroke-linecap="round" stroke-linejoin="round"/>
<path d="M324.854 276.816H283.334L279.715 284.42H328.915L324.854 276.816Z" fill="white" stroke="#263238" stroke-width="0.96" stroke-linecap="round" stroke-linejoin="round"/>
<path d="M284.88 286.878H324.173L327.6 284.42H281.04L284.88 286.878Z" fill="white" stroke="#263238" stroke-width="0.96" stroke-linecap="round" stroke-linejoin="round"/>
<path d="M319.469 326.66L322.982 294.26H285.216L288.73 326.66H319.469Z" fill="white" stroke="#263238" stroke-width="0.96" stroke-linecap="round" stroke-linejoin="round"/>
<path d="M328.435 304.101C328.435 304.101 315.715 304.341 313.315 306.741C310.915 309.141 311.635 312.021 316.195 312.501C320.755 312.981 327.475 313.941 331.075 312.981C334.675 312.021 334.675 304.101 328.435 304.101Z" fill="white" stroke="#263238" stroke-width="0.96" stroke-linecap="round" stroke-linejoin="round"/>
<path d="M325.517 329.78C325.517 329.78 315.418 329.972 313.517 331.883C311.616 333.793 312.182 336.068 315.802 336.452C319.421 336.836 324.749 337.595 327.61 336.827C330.47 336.059 330.461 329.78 325.517 329.78Z" fill="white" stroke="#263238" stroke-width="0.96" stroke-linecap="round" stroke-linejoin="round"/>
<path d="M330.835 313.921C330.835 313.921 314.275 313.921 310.195 314.641C306.115 315.361 304.675 319.441 310.675 320.641C316.675 321.841 328.915 322.561 332.755 322.081C336.595 321.601 336.835 313.7 330.835 313.921Z" fill="white" stroke="#263238" stroke-width="0.96" stroke-linecap="round" stroke-linejoin="round"/>
<path d="M329.875 322.561C329.875 322.561 316.675 322.081 312.115 323.761C307.555 325.441 309.235 327.841 313.555 328.801C317.875 329.761 327.475 330.961 331.075 329.761C334.675 328.561 334.675 322.1 329.875 322.561Z" fill="white" stroke="#263238" stroke-width="0.96" stroke-linecap="round" stroke-linejoin="round"/>
<path d="M125.76 237.869C125.76 237.869 123.216 239.396 125.002 247.037L126.778 254.669L137.722 252.634C137.722 252.634 132.922 243.994 130.848 240.154C128.774 236.314 126.307 236.852 125.76 237.869Z" fill="white" stroke="#263238" stroke-width="0.96" stroke-linecap="round" stroke-linejoin="round"/>
<path d="M117.12 251.877C117.12 251.877 151.987 246.021 162.432 242.459C170.289 239.919 178.275 237.794 186.355 236.094C188.443 235.612 190.577 235.354 192.72 235.326C192.72 235.326 193.738 235.326 193.488 239.656C193.238 243.985 199.085 300.241 204.432 317.55C209.779 334.859 213.072 343.009 213.072 343.009C213.072 343.009 181.766 349.374 152.746 349.374C136.702 349.479 120.683 348.114 104.89 345.294C103.872 345.294 117.37 294.414 116.851 277.077C116.371 259.547 117.12 251.877 117.12 251.877Z" fill="#C8161D" stroke="#263238" stroke-width="0.96" stroke-linecap="round" stroke-linejoin="round"/>
<path d="M204.48 317.55C199.133 300.27 193.277 243.985 193.536 239.656C193.795 235.326 192.768 235.326 192.768 235.326C191.574 235.343 190.381 235.43 189.197 235.585C189.062 236.682 189.062 237.791 189.197 238.888C189.197 238.888 188.928 266.641 188.16 299.521C187.526 326.766 187.939 342.433 188.102 346.984C202.589 345.189 213.062 343.057 213.062 343.057C213.062 343.057 209.808 334.859 204.48 317.55Z" fill="#C8161D" stroke="#263238" stroke-width="0.96" stroke-linecap="round" stroke-linejoin="round"/>
<path d="M192.24 236.602V249.332C192.24 253.402 193.008 255.437 191.472 255.437C189.936 255.437 177.226 257.732 156.605 261.802C143.5 264.417 130.23 266.117 116.89 266.89C115.363 266.89 117.149 251.876 117.149 251.876C117.149 251.876 155.837 245.76 168.307 241.69C175.727 239.259 183.295 237.303 190.963 235.834" fill="#C8161D"/>
<path d="M192.24 236.602V249.332C192.24 253.402 193.008 255.437 191.472 255.437C189.936 255.437 177.226 257.732 156.605 261.802C143.5 264.417 130.23 266.117 116.89 266.89C115.363 266.89 117.149 251.876 117.149 251.876C117.149 251.876 155.837 245.76 168.307 241.69C175.727 239.259 183.295 237.303 190.963 235.834" stroke="#263238" stroke-width="0.96" stroke-linecap="round" stroke-linejoin="round"/>
<path d="M147.696 227.434C147.696 227.434 150.24 221.578 157.114 225.399C163.987 229.219 168.566 242.967 167.549 245.76C166.531 248.554 163.219 249.331 160.416 246.528C157.613 243.725 150.49 233.549 148.714 230.746C146.938 227.943 147.696 227.434 147.696 227.434Z" fill="white" stroke="#263238" stroke-width="0.96" stroke-linecap="round" stroke-linejoin="round"/>
<path d="M140.054 230.997C140.054 230.997 152.918 249.755 155.328 251.368C157.738 252.981 162.221 253.902 160.925 248.315C159.706 243.006 154.819 232.782 151.507 229.221C148.195 225.659 145.91 225.15 143.107 226.677C140.304 228.203 139.546 228.961 140.054 230.997Z" fill="white" stroke="#263238" stroke-width="0.96" stroke-linecap="round" stroke-linejoin="round"/>
<path d="M141.12 229.979C141.12 229.979 153.082 245.253 154.109 248.824C155.136 252.395 153.082 258.241 147.744 254.929C142.406 251.617 137.558 240.673 134.506 236.853C131.453 233.032 136.742 227.185 141.12 229.979Z" fill="white" stroke="#263238" stroke-width="0.96" stroke-linecap="round" stroke-linejoin="round"/>
<path d="M133.949 233.799C133.949 233.799 126.269 234.816 125.309 238.887C124.349 242.957 130.906 251.876 136.253 253.402C141.6 254.928 143.126 250.599 141.6 247.037C140.074 243.476 136.493 234.567 133.949 233.799Z" fill="white" stroke="#263238" stroke-width="0.96" stroke-linecap="round" stroke-linejoin="round"/>
<path d="M411.811 382.571H328.752L348.182 292.379H431.242L411.811 382.571Z" fill="#263238" stroke="#263238" stroke-width="0.96" stroke-linecap="round" stroke-linejoin="round"/>
<path d="M431.242 292.379H348.182C348.182 292.379 395.213 303.736 431.242 292.379Z" fill="#6B6B6B" stroke="#263238" stroke-width="0.96" stroke-linecap="round" stroke-linejoin="round"/>
<path d="M374.803 331.307L366.048 358.235L380.976 368.295L386.813 351.428L374.803 331.307Z" fill="#3B3B3B" stroke="#263238" stroke-width="0.96" stroke-linecap="round" stroke-linejoin="round"/>
<path d="M374.803 331.307H403.68L408.221 348.51L386.813 351.428L374.803 331.307Z" fill="#3B3B3B" stroke="#263238" stroke-width="0.96" stroke-linecap="round" stroke-linejoin="round"/>
<path d="M400.406 397.816C398.92 377.874 392.821 358.55 382.589 341.368L359.818 397.816H400.406Z" fill="#3B3B3B" stroke="#263238" stroke-width="0.96" stroke-linecap="round" stroke-linejoin="round"/>
<path d="M436.234 397.816C436.829 371.464 423.149 341.368 423.149 341.368H382.589C392.821 358.55 398.92 377.874 400.406 397.816H436.234Z" fill="#6B6B6B" stroke="#263238" stroke-width="0.96" stroke-linecap="round" stroke-linejoin="round"/>
<path d="M449.578 394.821H40.9824V405.122H449.578V394.821Z" fill="white" stroke="#263238" stroke-width="0.96" stroke-linecap="round" stroke-linejoin="round"/>
</svg>
